<svg width="731" height="899" viewBox="0 0 731 899" fill="none" xmlns="http://www.w3.org/2000/svg">
<path d="M333.716 787.091C333.631 786.371 333.285 785.812 332.679 785.415C332.073 785.017 331.33 784.818 330.449 784.818C329.805 784.818 329.241 784.922 328.759 785.131C328.28 785.339 327.906 785.625 327.636 785.99C327.371 786.355 327.239 786.769 327.239 787.233C327.239 787.621 327.331 787.955 327.516 788.234C327.705 788.509 327.946 788.739 328.24 788.923C328.534 789.103 328.841 789.252 329.163 789.371C329.485 789.484 329.781 789.577 330.051 789.648L331.528 790.045C331.907 790.145 332.329 790.282 332.793 790.457C333.261 790.633 333.709 790.872 334.135 791.175C334.566 791.473 334.921 791.857 335.2 792.325C335.48 792.794 335.619 793.369 335.619 794.051C335.619 794.837 335.413 795.547 335.001 796.182C334.594 796.816 333.998 797.321 333.212 797.695C332.43 798.069 331.481 798.256 330.364 798.256C329.322 798.256 328.42 798.088 327.658 797.751C326.9 797.415 326.304 796.946 325.868 796.345C325.437 795.744 325.193 795.045 325.136 794.25H326.955C327.002 794.799 327.187 795.254 327.509 795.614C327.835 795.969 328.247 796.234 328.744 796.409C329.246 796.58 329.786 796.665 330.364 796.665C331.036 796.665 331.64 796.556 332.175 796.338C332.71 796.116 333.134 795.808 333.446 795.415C333.759 795.017 333.915 794.553 333.915 794.023C333.915 793.54 333.78 793.147 333.51 792.844C333.24 792.541 332.885 792.295 332.445 792.105C332.004 791.916 331.528 791.75 331.017 791.608L329.227 791.097C328.091 790.77 327.191 790.304 326.528 789.697C325.866 789.091 325.534 788.298 325.534 787.318C325.534 786.504 325.754 785.794 326.195 785.188C326.64 784.577 327.236 784.103 327.984 783.767C328.737 783.426 329.578 783.256 330.506 783.256C331.443 783.256 332.277 783.424 333.006 783.76C333.735 784.091 334.313 784.546 334.739 785.124C335.17 785.701 335.397 786.357 335.42 787.091H333.716ZM342.862 798.227C341.811 798.227 340.904 797.995 340.142 797.531C339.384 797.062 338.799 796.409 338.387 795.571C337.98 794.728 337.777 793.748 337.777 792.631C337.777 791.513 337.98 790.528 338.387 789.676C338.799 788.819 339.372 788.152 340.106 787.673C340.845 787.19 341.707 786.949 342.691 786.949C343.26 786.949 343.821 787.044 344.375 787.233C344.929 787.422 345.433 787.73 345.887 788.156C346.342 788.578 346.704 789.136 346.974 789.832C347.244 790.528 347.379 791.385 347.379 792.403V793.114H338.97V791.665H345.674C345.674 791.049 345.551 790.5 345.305 790.017C345.064 789.534 344.718 789.153 344.268 788.874C343.823 788.594 343.297 788.455 342.691 788.455C342.024 788.455 341.446 788.62 340.958 788.952C340.475 789.278 340.104 789.705 339.843 790.23C339.583 790.756 339.453 791.319 339.453 791.92V792.886C339.453 793.71 339.595 794.409 339.879 794.982C340.168 795.55 340.568 795.983 341.079 796.281C341.591 796.575 342.185 796.722 342.862 796.722C343.302 796.722 343.7 796.66 344.055 796.537C344.415 796.409 344.725 796.22 344.985 795.969C345.246 795.713 345.447 795.396 345.589 795.017L347.208 795.472C347.038 796.021 346.752 796.504 346.349 796.92C345.947 797.332 345.449 797.654 344.858 797.886C344.266 798.114 343.6 798.227 342.862 798.227ZM354.36 798.227C353.338 798.227 352.457 797.986 351.718 797.503C350.98 797.02 350.412 796.355 350.014 795.507C349.616 794.66 349.417 793.691 349.417 792.602C349.417 791.494 349.621 790.517 350.028 789.669C350.44 788.817 351.013 788.152 351.747 787.673C352.485 787.19 353.347 786.949 354.332 786.949C355.099 786.949 355.79 787.091 356.406 787.375C357.021 787.659 357.526 788.057 357.919 788.568C358.312 789.08 358.556 789.676 358.65 790.358H356.974C356.846 789.861 356.562 789.42 356.122 789.037C355.686 788.649 355.099 788.455 354.36 788.455C353.707 788.455 353.134 788.625 352.642 788.966C352.154 789.302 351.773 789.778 351.498 790.393C351.228 791.004 351.093 791.722 351.093 792.545C351.093 793.388 351.226 794.122 351.491 794.747C351.761 795.372 352.14 795.857 352.627 796.203C353.12 796.549 353.698 796.722 354.36 796.722C354.796 796.722 355.191 796.646 355.547 796.494C355.902 796.343 356.202 796.125 356.449 795.841C356.695 795.557 356.87 795.216 356.974 794.818H358.65C358.556 795.462 358.321 796.042 357.947 796.558C357.578 797.07 357.088 797.477 356.477 797.78C355.871 798.078 355.165 798.227 354.36 798.227ZM365.532 798.227C364.547 798.227 363.683 797.993 362.94 797.524C362.201 797.055 361.624 796.4 361.207 795.557C360.795 794.714 360.589 793.729 360.589 792.602C360.589 791.466 360.795 790.474 361.207 789.626C361.624 788.779 362.201 788.121 362.94 787.652C363.683 787.183 364.547 786.949 365.532 786.949C366.517 786.949 367.379 787.183 368.118 787.652C368.861 788.121 369.439 788.779 369.85 789.626C370.267 790.474 370.475 791.466 370.475 792.602C370.475 793.729 370.267 794.714 369.85 795.557C369.439 796.4 368.861 797.055 368.118 797.524C367.379 797.993 366.517 798.227 365.532 798.227ZM365.532 796.722C366.28 796.722 366.896 796.53 367.379 796.146C367.862 795.763 368.219 795.259 368.451 794.634C368.683 794.009 368.799 793.331 368.799 792.602C368.799 791.873 368.683 791.194 368.451 790.564C368.219 789.934 367.862 789.425 367.379 789.037C366.896 788.649 366.28 788.455 365.532 788.455C364.784 788.455 364.169 788.649 363.686 789.037C363.203 789.425 362.845 789.934 362.613 790.564C362.381 791.194 362.265 791.873 362.265 792.602C362.265 793.331 362.381 794.009 362.613 794.634C362.845 795.259 363.203 795.763 363.686 796.146C364.169 796.53 364.784 796.722 365.532 796.722ZM374.71 791.438V798H373.034V787.091H374.653V788.795H374.795C375.051 788.241 375.439 787.796 375.96 787.46C376.481 787.119 377.153 786.949 377.977 786.949C378.716 786.949 379.362 787.1 379.916 787.403C380.47 787.702 380.901 788.156 381.209 788.767C381.517 789.373 381.67 790.14 381.67 791.068V798H379.994V791.182C379.994 790.325 379.772 789.657 379.327 789.179C378.882 788.696 378.271 788.455 377.494 788.455C376.959 788.455 376.481 788.571 376.06 788.803C375.643 789.035 375.314 789.373 375.072 789.818C374.831 790.263 374.71 790.803 374.71 791.438ZM388.853 798.227C387.944 798.227 387.141 797.998 386.445 797.538C385.749 797.074 385.204 796.421 384.811 795.578C384.418 794.731 384.222 793.729 384.222 792.574C384.222 791.428 384.418 790.434 384.811 789.591C385.204 788.748 385.751 788.097 386.452 787.638C387.153 787.179 387.962 786.949 388.881 786.949C389.591 786.949 390.152 787.067 390.564 787.304C390.981 787.536 391.298 787.801 391.516 788.099C391.739 788.393 391.911 788.634 392.034 788.824H392.176V783.455H393.853V798H392.233V796.324H392.034C391.911 796.523 391.736 796.774 391.509 797.077C391.282 797.375 390.957 797.643 390.536 797.879C390.114 798.111 389.553 798.227 388.853 798.227ZM389.08 796.722C389.752 796.722 390.32 796.546 390.784 796.196C391.248 795.841 391.601 795.351 391.843 794.726C392.084 794.096 392.205 793.369 392.205 792.545C392.205 791.731 392.087 791.018 391.85 790.408C391.613 789.792 391.263 789.314 390.799 788.973C390.335 788.627 389.762 788.455 389.08 788.455C388.37 788.455 387.778 788.637 387.304 789.001C386.836 789.361 386.483 789.851 386.246 790.472C386.014 791.087 385.898 791.778 385.898 792.545C385.898 793.322 386.016 794.027 386.253 794.662C386.495 795.292 386.85 795.794 387.319 796.168C387.792 796.537 388.379 796.722 389.08 796.722ZM404.882 789.534L403.377 789.96C403.282 789.709 403.142 789.465 402.958 789.229C402.778 788.987 402.532 788.788 402.219 788.632C401.907 788.476 401.507 788.398 401.019 788.398C400.351 788.398 399.795 788.552 399.35 788.859C398.909 789.162 398.689 789.548 398.689 790.017C398.689 790.434 398.841 790.763 399.144 791.004C399.447 791.246 399.92 791.447 400.564 791.608L402.184 792.006C403.159 792.242 403.886 792.605 404.364 793.092C404.842 793.575 405.081 794.198 405.081 794.96C405.081 795.585 404.901 796.144 404.542 796.636C404.186 797.129 403.689 797.517 403.05 797.801C402.411 798.085 401.667 798.227 400.82 798.227C399.707 798.227 398.786 797.986 398.057 797.503C397.328 797.02 396.866 796.314 396.672 795.386L398.263 794.989C398.415 795.576 398.701 796.016 399.123 796.31C399.549 796.603 400.105 796.75 400.792 796.75C401.573 796.75 402.193 796.584 402.652 796.253C403.116 795.917 403.348 795.514 403.348 795.045C403.348 794.667 403.216 794.349 402.951 794.094C402.685 793.833 402.278 793.639 401.729 793.511L399.911 793.085C398.912 792.848 398.178 792.482 397.709 791.984C397.245 791.482 397.013 790.855 397.013 790.102C397.013 789.487 397.186 788.942 397.532 788.469C397.882 787.995 398.358 787.624 398.959 787.354C399.565 787.084 400.252 786.949 401.019 786.949C402.098 786.949 402.946 787.186 403.561 787.659C404.182 788.133 404.622 788.758 404.882 789.534Z" fill="black"/>
<rect x="179" y="835" width="64" height="64" fill="#EABBBB"/>
<rect x="427" y="835" width="64" height="64" fill="#90ABD3"/>
<path d="M267.761 874V859.455H272.676C273.813 859.455 274.745 859.649 275.474 860.037C276.204 860.42 276.743 860.948 277.094 861.621C277.444 862.293 277.619 863.058 277.619 863.915C277.619 864.772 277.444 865.532 277.094 866.195C276.743 866.857 276.206 867.378 275.482 867.757C274.757 868.131 273.831 868.318 272.705 868.318H268.727V866.727H272.648C273.424 866.727 274.049 866.614 274.523 866.386C275.001 866.159 275.347 865.837 275.56 865.42C275.777 864.999 275.886 864.497 275.886 863.915C275.886 863.332 275.777 862.823 275.56 862.388C275.342 861.952 274.994 861.616 274.516 861.379C274.037 861.138 273.405 861.017 272.619 861.017H269.523V874H267.761ZM274.608 867.466L278.188 874H276.142L272.619 867.466H274.608ZM280.327 874V863.091H282.003V874H280.327ZM281.179 861.273C280.853 861.273 280.571 861.161 280.334 860.939C280.102 860.716 279.986 860.449 279.986 860.136C279.986 859.824 280.102 859.556 280.334 859.334C280.571 859.111 280.853 859 281.179 859C281.506 859 281.785 859.111 282.017 859.334C282.254 859.556 282.373 859.824 282.373 860.136C282.373 860.449 282.254 860.716 282.017 860.939C281.785 861.161 281.506 861.273 281.179 861.273ZM289.477 878.318C288.667 878.318 287.971 878.214 287.388 878.006C286.806 877.802 286.321 877.532 285.933 877.196C285.549 876.865 285.244 876.509 285.016 876.131L286.352 875.193C286.503 875.392 286.695 875.619 286.927 875.875C287.159 876.135 287.476 876.36 287.879 876.55C288.286 876.744 288.818 876.841 289.477 876.841C290.357 876.841 291.084 876.628 291.657 876.202C292.23 875.776 292.516 875.108 292.516 874.199V871.983H292.374C292.251 872.182 292.076 872.428 291.849 872.722C291.626 873.01 291.304 873.268 290.883 873.496C290.466 873.718 289.903 873.83 289.192 873.83C288.312 873.83 287.521 873.621 286.82 873.205C286.124 872.788 285.573 872.182 285.165 871.386C284.763 870.591 284.562 869.625 284.562 868.489C284.562 867.371 284.758 866.398 285.151 865.57C285.544 864.736 286.091 864.092 286.792 863.638C287.493 863.179 288.302 862.949 289.221 862.949C289.931 862.949 290.495 863.067 290.911 863.304C291.333 863.536 291.655 863.801 291.877 864.099C292.104 864.393 292.28 864.634 292.403 864.824H292.573V863.091H294.192V874.312C294.192 875.25 293.979 876.012 293.553 876.599C293.132 877.191 292.564 877.625 291.849 877.899C291.138 878.179 290.348 878.318 289.477 878.318ZM289.42 872.324C290.092 872.324 290.66 872.17 291.124 871.862C291.588 871.554 291.941 871.112 292.183 870.534C292.424 869.956 292.545 869.265 292.545 868.46C292.545 867.674 292.426 866.981 292.19 866.379C291.953 865.778 291.603 865.307 291.138 864.966C290.674 864.625 290.102 864.455 289.42 864.455C288.71 864.455 288.118 864.634 287.644 864.994C287.175 865.354 286.823 865.837 286.586 866.443C286.354 867.049 286.238 867.722 286.238 868.46C286.238 869.218 286.356 869.888 286.593 870.47C286.835 871.048 287.19 871.502 287.658 871.834C288.132 872.161 288.719 872.324 289.42 872.324ZM298.937 867.438V874H297.261V859.455H298.937V864.795H299.079C299.335 864.232 299.718 863.785 300.229 863.453C300.746 863.117 301.432 862.949 302.289 862.949C303.032 862.949 303.683 863.098 304.242 863.396C304.801 863.69 305.234 864.142 305.542 864.753C305.854 865.359 306.011 866.131 306.011 867.068V874H304.335V867.182C304.335 866.315 304.11 865.645 303.66 865.172C303.215 864.694 302.597 864.455 301.806 864.455C301.257 864.455 300.764 864.571 300.329 864.803C299.898 865.035 299.557 865.373 299.306 865.818C299.06 866.263 298.937 866.803 298.937 867.438ZM313.821 863.091V864.511H308.168V863.091H313.821ZM309.816 860.477H311.492V870.875C311.492 871.348 311.56 871.704 311.698 871.94C311.84 872.172 312.02 872.329 312.238 872.409C312.46 872.485 312.694 872.523 312.941 872.523C313.125 872.523 313.277 872.513 313.395 872.494C313.514 872.471 313.608 872.452 313.679 872.438L314.02 873.943C313.907 873.986 313.748 874.028 313.544 874.071C313.341 874.118 313.083 874.142 312.77 874.142C312.297 874.142 311.833 874.04 311.378 873.837C310.928 873.633 310.554 873.323 310.256 872.906C309.962 872.49 309.816 871.964 309.816 871.33V860.477Z" fill="black"/>
<path d="M515.761 874V859.455H517.523V872.438H524.284V874H515.761ZM531.358 874.227C530.307 874.227 529.4 873.995 528.638 873.531C527.88 873.062 527.295 872.409 526.884 871.571C526.476 870.728 526.273 869.748 526.273 868.631C526.273 867.513 526.476 866.528 526.884 865.676C527.295 864.819 527.868 864.152 528.602 863.673C529.341 863.19 530.203 862.949 531.188 862.949C531.756 862.949 532.317 863.044 532.871 863.233C533.425 863.422 533.929 863.73 534.384 864.156C534.838 864.578 535.2 865.136 535.47 865.832C535.74 866.528 535.875 867.385 535.875 868.403V869.114H527.466V867.665H534.17C534.17 867.049 534.047 866.5 533.801 866.017C533.56 865.534 533.214 865.153 532.764 864.874C532.319 864.594 531.794 864.455 531.188 864.455C530.52 864.455 529.942 864.62 529.455 864.952C528.972 865.278 528.6 865.705 528.339 866.23C528.079 866.756 527.949 867.319 527.949 867.92V868.886C527.949 869.71 528.091 870.409 528.375 870.982C528.664 871.55 529.064 871.983 529.575 872.281C530.087 872.575 530.681 872.722 531.358 872.722C531.798 872.722 532.196 872.66 532.551 872.537C532.911 872.409 533.221 872.22 533.482 871.969C533.742 871.713 533.943 871.396 534.085 871.017L535.705 871.472C535.534 872.021 535.248 872.504 534.845 872.92C534.443 873.332 533.946 873.654 533.354 873.886C532.762 874.114 532.097 874.227 531.358 874.227ZM543.283 863.091V864.511H537.402V863.091H543.283ZM539.163 874V861.585C539.163 860.96 539.31 860.439 539.604 860.023C539.897 859.606 540.278 859.294 540.747 859.085C541.216 858.877 541.711 858.773 542.232 858.773C542.643 858.773 542.98 858.806 543.24 858.872C543.5 858.938 543.695 859 543.822 859.057L543.339 860.506C543.254 860.477 543.136 860.442 542.984 860.399C542.838 860.357 542.643 860.335 542.402 860.335C541.848 860.335 541.448 860.475 541.202 860.754C540.96 861.034 540.839 861.443 540.839 861.983V874H539.163ZM550.376 863.091V864.511H544.723V863.091H550.376ZM546.37 860.477H548.047V870.875C548.047 871.348 548.115 871.704 548.252 871.94C548.395 872.172 548.574 872.329 548.792 872.409C549.015 872.485 549.249 872.523 549.495 872.523C549.68 872.523 549.832 872.513 549.95 872.494C550.068 872.471 550.163 872.452 550.234 872.438L550.575 873.943C550.461 873.986 550.303 874.028 550.099 874.071C549.895 874.118 549.637 874.142 549.325 874.142C548.851 874.142 548.387 874.04 547.933 873.837C547.483 873.633 547.109 873.323 546.811 872.906C546.517 872.49 546.37 871.964 546.37 871.33V860.477Z" fill="black"/>
<path d="M85.0653 25H82.6648L89.608 6.09091H91.9716L98.9148 25H96.5142L90.8636 9.08239H90.7159L85.0653 25ZM85.9517 17.6136H95.6278V19.6449H85.9517V17.6136ZM107.326 25.2955C105.996 25.2955 104.852 24.9815 103.891 24.3537C102.931 23.7259 102.192 22.861 101.675 21.7592C101.158 20.6574 100.9 19.3987 100.9 17.983C100.9 16.5426 101.165 15.2715 101.694 14.1697C102.229 13.0618 102.974 12.197 103.928 11.5753C104.888 10.9474 106.009 10.6335 107.289 10.6335C108.286 10.6335 109.185 10.8182 109.985 11.1875C110.785 11.5568 111.441 12.0739 111.952 12.7386C112.463 13.4034 112.78 14.179 112.903 15.0653H110.724C110.558 14.419 110.188 13.8466 109.616 13.348C109.049 12.8433 108.286 12.5909 107.326 12.5909C106.477 12.5909 105.732 12.8125 105.092 13.2557C104.458 13.6927 103.962 14.3113 103.605 15.1115C103.254 15.9055 103.079 16.8381 103.079 17.9091C103.079 19.0047 103.251 19.9588 103.596 20.7713C103.947 21.5838 104.439 22.2147 105.073 22.6641C105.713 23.1134 106.464 23.3381 107.326 23.3381C107.892 23.3381 108.406 23.2396 108.868 23.0426C109.33 22.8456 109.72 22.5625 110.04 22.1932C110.361 21.8239 110.588 21.3807 110.724 20.8636H112.903C112.78 21.7008 112.475 22.4548 111.989 23.1257C111.509 23.7905 110.871 24.3198 110.077 24.7138C109.29 25.1016 108.372 25.2955 107.326 25.2955ZM121.849 25.2955C120.52 25.2955 119.375 24.9815 118.415 24.3537C117.455 23.7259 116.716 22.861 116.199 21.7592C115.682 20.6574 115.423 19.3987 115.423 17.983C115.423 16.5426 115.688 15.2715 116.217 14.1697C116.753 13.0618 117.498 12.197 118.452 11.5753C119.412 10.9474 120.532 10.6335 121.812 10.6335C122.81 10.6335 123.708 10.8182 124.509 11.1875C125.309 11.5568 125.964 12.0739 126.475 12.7386C126.986 13.4034 127.303 14.179 127.426 15.0653H125.247C125.081 14.419 124.712 13.8466 124.139 13.348C123.573 12.8433 122.81 12.5909 121.849 12.5909C121 12.5909 120.255 12.8125 119.615 13.2557C118.981 13.6927 118.486 14.3113 118.129 15.1115C117.778 15.9055 117.602 16.8381 117.602 17.9091C117.602 19.0047 117.775 19.9588 118.119 20.7713C118.47 21.5838 118.963 22.2147 119.597 22.6641C120.237 23.1134 120.988 23.3381 121.849 23.3381C122.416 23.3381 122.93 23.2396 123.391 23.0426C123.853 22.8456 124.244 22.5625 124.564 22.1932C124.884 21.8239 125.112 21.3807 125.247 20.8636H127.426C127.303 21.7008 126.998 22.4548 126.512 23.1257C126.032 23.7905 125.395 24.3198 124.601 24.7138C123.813 25.1016 122.896 25.2955 121.849 25.2955ZM139.549 19.2017V10.8182H141.728V25H139.549V22.5994H139.401C139.069 23.3196 138.552 23.9321 137.85 24.4368C137.148 24.9354 136.262 25.1847 135.191 25.1847C134.305 25.1847 133.517 24.9908 132.827 24.603C132.138 24.209 131.596 23.6181 131.202 22.8303C130.808 22.0362 130.612 21.036 130.612 19.8295V10.8182H132.79V19.6818C132.79 20.7159 133.08 21.5407 133.658 22.1562C134.243 22.7718 134.988 23.0795 135.893 23.0795C136.434 23.0795 136.985 22.9411 137.545 22.6641C138.112 22.3871 138.586 21.9624 138.967 21.3899C139.355 20.8175 139.549 20.0881 139.549 19.2017ZM145.719 25V10.8182H147.824V12.9602H147.972C148.23 12.2585 148.698 11.6892 149.375 11.2521C150.052 10.8151 150.816 10.5966 151.665 10.5966C151.825 10.5966 152.025 10.5997 152.265 10.6058C152.505 10.612 152.687 10.6212 152.81 10.6335V12.8494C152.736 12.831 152.567 12.8033 152.302 12.7663C152.044 12.7232 151.77 12.7017 151.48 12.7017C150.791 12.7017 150.175 12.8464 149.634 13.1357C149.098 13.4188 148.673 13.8127 148.36 14.3175C148.052 14.8161 147.898 15.3854 147.898 16.0256V25H145.719ZM159.566 25.3324C158.667 25.3324 157.852 25.1631 157.119 24.8246C156.387 24.4799 155.805 23.9844 155.374 23.3381C154.943 22.6856 154.728 21.8977 154.728 20.9744C154.728 20.1619 154.888 19.5033 155.208 18.9986C155.528 18.4877 155.956 18.0876 156.491 17.7983C157.027 17.509 157.618 17.2936 158.264 17.152C158.917 17.0043 159.572 16.8873 160.231 16.8011C161.093 16.6903 161.791 16.6072 162.327 16.5518C162.868 16.4903 163.262 16.3887 163.509 16.2472C163.761 16.1056 163.887 15.8594 163.887 15.5085V15.4347C163.887 14.5237 163.638 13.8158 163.139 13.3111C162.647 12.8063 161.899 12.554 160.896 12.554C159.855 12.554 159.04 12.7817 158.449 13.2372C157.858 13.6927 157.442 14.179 157.202 14.696L155.134 13.9574C155.504 13.0956 155.996 12.4247 156.612 11.9446C157.233 11.4583 157.91 11.1198 158.643 10.929C159.381 10.732 160.108 10.6335 160.822 10.6335C161.277 10.6335 161.8 10.6889 162.391 10.7997C162.988 10.9044 163.564 11.1229 164.118 11.4553C164.678 11.7876 165.143 12.2893 165.512 12.9602C165.881 13.6312 166.066 14.5298 166.066 15.6562V25H163.887V23.0795H163.776C163.629 23.3873 163.382 23.7166 163.038 24.0675C162.693 24.4183 162.234 24.7169 161.662 24.9631C161.089 25.2093 160.391 25.3324 159.566 25.3324ZM159.898 23.375C160.76 23.375 161.487 23.2057 162.077 22.8672C162.674 22.5286 163.124 22.0916 163.425 21.5561C163.733 21.0206 163.887 20.4574 163.887 19.8665V17.8722C163.795 17.983 163.592 18.0845 163.278 18.1768C162.97 18.263 162.613 18.34 162.207 18.4077C161.807 18.4692 161.416 18.5246 161.034 18.5739C160.659 18.617 160.354 18.6539 160.12 18.6847C159.554 18.7585 159.024 18.8786 158.532 19.0447C158.046 19.2048 157.652 19.4479 157.35 19.7741C157.055 20.0942 156.907 20.5312 156.907 21.0852C156.907 21.8423 157.187 22.4148 157.747 22.8026C158.313 23.1842 159.031 23.375 159.898 23.375ZM172.222 16.4688V25H170.043V10.8182H172.148V13.0341H172.333C172.665 12.3139 173.17 11.7353 173.847 11.2983C174.524 10.8551 175.398 10.6335 176.469 10.6335C177.43 10.6335 178.27 10.8305 178.99 11.2244C179.71 11.6122 180.27 12.2031 180.67 12.9972C181.07 13.785 181.27 14.7822 181.27 15.9886V25H179.091V16.1364C179.091 15.0223 178.802 14.1544 178.224 13.5327C177.645 12.9048 176.851 12.5909 175.841 12.5909C175.146 12.5909 174.524 12.7417 173.976 13.0433C173.435 13.3449 173.007 13.785 172.693 14.3636C172.379 14.9422 172.222 15.6439 172.222 16.4688ZM191.013 25.2955C189.684 25.2955 188.539 24.9815 187.579 24.3537C186.619 23.7259 185.88 22.861 185.363 21.7592C184.846 20.6574 184.587 19.3987 184.587 17.983C184.587 16.5426 184.852 15.2715 185.381 14.1697C185.917 13.0618 186.662 12.197 187.616 11.5753C188.576 10.9474 189.696 10.6335 190.977 10.6335C191.974 10.6335 192.872 10.8182 193.673 11.1875C194.473 11.5568 195.128 12.0739 195.639 12.7386C196.15 13.4034 196.467 14.179 196.59 15.0653H194.411C194.245 14.419 193.876 13.8466 193.303 13.348C192.737 12.8433 191.974 12.5909 191.013 12.5909C190.164 12.5909 189.419 12.8125 188.779 13.2557C188.145 13.6927 187.65 14.3113 187.293 15.1115C186.942 15.9055 186.766 16.8381 186.766 17.9091C186.766 19.0047 186.939 19.9588 187.283 20.7713C187.634 21.5838 188.127 22.2147 188.761 22.6641C189.401 23.1134 190.152 23.3381 191.013 23.3381C191.58 23.3381 192.094 23.2396 192.555 23.0426C193.017 22.8456 193.408 22.5625 193.728 22.1932C194.048 21.8239 194.276 21.3807 194.411 20.8636H196.59C196.467 21.7008 196.162 22.4548 195.676 23.1257C195.196 23.7905 194.559 24.3198 193.765 24.7138C192.977 25.1016 192.06 25.2955 191.013 25.2955ZM201.179 30.3182C200.81 30.3182 200.48 30.2874 200.191 30.2259C199.902 30.1705 199.702 30.1151 199.591 30.0597L200.145 28.1392C200.674 28.2746 201.142 28.3239 201.548 28.2869C201.955 28.25 202.315 28.0684 202.629 27.7422C202.949 27.4221 203.241 26.902 203.506 26.1818L203.912 25.0739L198.668 10.8182H201.031L204.946 22.1193H205.094L209.009 10.8182H211.372L205.352 27.0682C205.081 27.8007 204.746 28.407 204.346 28.8871C203.946 29.3733 203.481 29.7334 202.952 29.9673C202.429 30.2012 201.838 30.3182 201.179 30.3182ZM221.856 25V6.09091H224.146V22.9688H232.936V25H221.856ZM242.132 25.2955C240.765 25.2955 239.587 24.9938 238.596 24.3906C237.611 23.7812 236.85 22.9318 236.315 21.8423C235.786 20.7467 235.521 19.4725 235.521 18.0199C235.521 16.5672 235.786 15.2869 236.315 14.179C236.85 13.0649 237.595 12.197 238.549 11.5753C239.51 10.9474 240.63 10.6335 241.91 10.6335C242.649 10.6335 243.378 10.7566 244.098 11.0028C244.819 11.2491 245.474 11.6491 246.065 12.2031C246.656 12.7509 247.127 13.4773 247.478 14.3821C247.828 15.2869 248.004 16.401 248.004 17.7244V18.6477H237.072V16.7642H245.788C245.788 15.964 245.628 15.25 245.308 14.6222C244.994 13.9943 244.545 13.4988 243.96 13.1357C243.381 12.7725 242.698 12.5909 241.91 12.5909C241.042 12.5909 240.291 12.8063 239.657 13.2372C239.029 13.6619 238.546 14.2159 238.208 14.8991C237.869 15.5824 237.7 16.3149 237.7 17.0966V18.3523C237.7 19.4233 237.885 20.3312 238.254 21.076C238.629 21.8146 239.15 22.3778 239.814 22.7656C240.479 23.1473 241.252 23.3381 242.132 23.3381C242.704 23.3381 243.221 23.258 243.683 23.098C244.151 22.9318 244.554 22.6856 244.892 22.3594C245.231 22.027 245.493 21.6146 245.677 21.1222L247.782 21.7131C247.561 22.4271 247.188 23.0549 246.665 23.5966C246.142 24.1321 245.496 24.5507 244.726 24.8523C243.957 25.1477 243.092 25.2955 242.132 25.2955ZM257.634 10.8182V12.6648H249.989V10.8182H257.634ZM252.279 25V8.8608C252.279 8.04829 252.47 7.37121 252.851 6.82954C253.233 6.28788 253.728 5.88163 254.338 5.61079C254.947 5.33996 255.59 5.20454 256.267 5.20454C256.803 5.20454 257.24 5.24763 257.578 5.33381C257.917 5.41998 258.169 5.5 258.336 5.57386L257.708 7.45739C257.597 7.42045 257.443 7.37429 257.246 7.31889C257.055 7.26349 256.803 7.23579 256.489 7.23579C255.769 7.23579 255.249 7.41738 254.929 7.78054C254.615 8.1437 254.458 8.67614 254.458 9.37784V25H252.279ZM266.855 10.8182V12.6648H259.506V10.8182H266.855ZM261.648 7.42045H263.827V20.9375C263.827 21.553 263.916 22.0147 264.095 22.3224C264.279 22.6241 264.513 22.8272 264.796 22.9318C265.086 23.0303 265.39 23.0795 265.71 23.0795C265.95 23.0795 266.147 23.0672 266.301 23.0426C266.455 23.0118 266.578 22.9872 266.671 22.9688L267.114 24.9261C266.966 24.9815 266.76 25.0369 266.495 25.0923C266.231 25.1539 265.895 25.1847 265.489 25.1847C264.873 25.1847 264.27 25.0523 263.679 24.7876C263.094 24.523 262.608 24.1198 262.22 23.5781C261.839 23.0365 261.648 22.3532 261.648 21.5284V7.42045ZM281.619 25.3324C280.72 25.3324 279.905 25.1631 279.172 24.8246C278.44 24.4799 277.858 23.9844 277.427 23.3381C276.996 22.6856 276.781 21.8977 276.781 20.9744C276.781 20.1619 276.941 19.5033 277.261 18.9986C277.581 18.4877 278.009 18.0876 278.544 17.7983C279.08 17.509 279.671 17.2936 280.317 17.152C280.969 17.0043 281.625 16.8873 282.284 16.8011C283.145 16.6903 283.844 16.6072 284.379 16.5518C284.921 16.4903 285.315 16.3887 285.561 16.2472C285.814 16.1056 285.94 15.8594 285.94 15.5085V15.4347C285.94 14.5237 285.691 13.8158 285.192 13.3111C284.7 12.8063 283.952 12.554 282.948 12.554C281.908 12.554 281.093 12.7817 280.502 13.2372C279.911 13.6927 279.495 14.179 279.255 14.696L277.187 13.9574C277.556 13.0956 278.049 12.4247 278.664 11.9446C279.286 11.4583 279.963 11.1198 280.695 10.929C281.434 10.732 282.16 10.6335 282.874 10.6335C283.33 10.6335 283.853 10.6889 284.444 10.7997C285.041 10.9044 285.617 11.1229 286.171 11.4553C286.731 11.7876 287.195 12.2893 287.565 12.9602C287.934 13.6312 288.119 14.5298 288.119 15.6562V25H285.94V23.0795H285.829C285.681 23.3873 285.435 23.7166 285.09 24.0675C284.746 24.4183 284.287 24.7169 283.715 24.9631C283.142 25.2093 282.444 25.3324 281.619 25.3324ZM281.951 23.375C282.813 23.375 283.539 23.2057 284.13 22.8672C284.727 22.5286 285.177 22.0916 285.478 21.5561C285.786 21.0206 285.94 20.4574 285.94 19.8665V17.8722C285.847 17.983 285.644 18.0845 285.33 18.1768C285.023 18.263 284.666 18.34 284.259 18.4077C283.859 18.4692 283.468 18.5246 283.087 18.5739C282.711 18.617 282.407 18.6539 282.173 18.6847C281.606 18.7585 281.077 18.8786 280.585 19.0447C280.098 19.2048 279.704 19.4479 279.403 19.7741C279.107 20.0942 278.96 20.5312 278.96 21.0852C278.96 21.8423 279.24 22.4148 279.8 22.8026C280.366 23.1842 281.083 23.375 281.951 23.375ZM294.275 16.4688V25H292.096V10.8182H294.201V13.0341H294.386C294.718 12.3139 295.223 11.7353 295.9 11.2983C296.577 10.8551 297.451 10.6335 298.522 10.6335C299.482 10.6335 300.322 10.8305 301.043 11.2244C301.763 11.6122 302.323 12.2031 302.723 12.9972C303.123 13.785 303.323 14.7822 303.323 15.9886V25H301.144V16.1364C301.144 15.0223 300.855 14.1544 300.276 13.5327C299.698 12.9048 298.904 12.5909 297.894 12.5909C297.199 12.5909 296.577 12.7417 296.029 13.0433C295.487 13.3449 295.06 13.785 294.746 14.3636C294.432 14.9422 294.275 15.6439 294.275 16.4688ZM312.66 25.2955C311.478 25.2955 310.435 24.9969 309.53 24.3999C308.625 23.7966 307.917 22.9472 307.406 21.8516C306.896 20.7498 306.64 19.4479 306.64 17.946C306.64 16.4564 306.896 15.1638 307.406 14.0682C307.917 12.9725 308.628 12.1262 309.539 11.5291C310.45 10.9321 311.503 10.6335 312.697 10.6335C313.62 10.6335 314.35 10.7874 314.885 11.0952C315.427 11.3968 315.839 11.7415 316.122 12.1293C316.412 12.5109 316.636 12.8248 316.796 13.071H316.981V6.09091H319.16V25H317.055V22.821H316.796C316.636 23.0795 316.409 23.4058 316.113 23.7997C315.818 24.1875 315.396 24.5353 314.848 24.843C314.3 25.1446 313.571 25.2955 312.66 25.2955ZM312.955 23.3381C313.829 23.3381 314.568 23.1103 315.171 22.6548C315.775 22.1932 316.233 21.5561 316.547 20.7436C316.861 19.925 317.018 18.9801 317.018 17.9091C317.018 16.8504 316.864 15.924 316.556 15.13C316.249 14.3298 315.793 13.7081 315.19 13.2649C314.587 12.8156 313.842 12.5909 312.955 12.5909C312.032 12.5909 311.263 12.8279 310.647 13.3018C310.038 13.7696 309.579 14.4067 309.271 15.2131C308.97 16.0133 308.819 16.9119 308.819 17.9091C308.819 18.9186 308.973 19.8357 309.281 20.6605C309.595 21.4792 310.056 22.1316 310.666 22.6179C311.281 23.098 312.044 23.3381 312.955 23.3381ZM331.061 25V6.09091H337.45C338.928 6.09091 340.14 6.34328 341.088 6.84801C342.036 7.34659 342.738 8.03291 343.193 8.90696C343.649 9.78101 343.877 10.7751 343.877 11.8892C343.877 13.0033 343.649 13.9912 343.193 14.853C342.738 15.7147 342.039 16.3918 341.097 16.8842C340.156 17.3705 338.952 17.6136 337.487 17.6136H332.317V15.5455H337.414C338.423 15.5455 339.235 15.3977 339.851 15.1023C340.473 14.8068 340.922 14.3883 341.199 13.8466C341.482 13.2988 341.624 12.6463 341.624 11.8892C341.624 11.1321 341.482 10.4704 341.199 9.90412C340.916 9.33783 340.463 8.9008 339.842 8.59304C339.22 8.27912 338.398 8.12216 337.377 8.12216H333.351V25H331.061ZM339.962 16.5057L344.615 25H341.956L337.377 16.5057H339.962ZM347.397 25V10.8182H349.576V25H347.397ZM348.505 8.45455C348.08 8.45455 347.714 8.3099 347.406 8.0206C347.104 7.7313 346.953 7.38352 346.953 6.97727C346.953 6.57102 347.104 6.22325 347.406 5.93395C347.714 5.64465 348.08 5.5 348.505 5.5C348.929 5.5 349.292 5.64465 349.594 5.93395C349.902 6.22325 350.056 6.57102 350.056 6.97727C350.056 7.38352 349.902 7.7313 349.594 8.0206C349.292 8.3099 348.929 8.45455 348.505 8.45455ZM359.291 30.6136C358.238 30.6136 357.334 30.4782 356.577 30.2074C355.819 29.9427 355.189 29.5919 354.684 29.1548C354.185 28.724 353.788 28.2623 353.493 27.7699L355.229 26.5511C355.425 26.8097 355.675 27.1051 355.976 27.4375C356.278 27.776 356.69 28.0684 357.214 28.3146C357.743 28.567 358.435 28.6932 359.291 28.6932C360.436 28.6932 361.381 28.4162 362.126 27.8622C362.87 27.3082 363.243 26.4403 363.243 25.2585V22.3778H363.058C362.898 22.6364 362.67 22.9564 362.375 23.3381C362.086 23.7135 361.667 24.049 361.119 24.3445C360.577 24.6338 359.845 24.7784 358.922 24.7784C357.777 24.7784 356.749 24.5076 355.838 23.9659C354.933 23.4242 354.216 22.6364 353.687 21.6023C353.163 20.5682 352.902 19.3125 352.902 17.8352C352.902 16.3826 353.157 15.1177 353.668 14.0405C354.179 12.9571 354.89 12.12 355.801 11.5291C356.712 10.9321 357.765 10.6335 358.959 10.6335C359.882 10.6335 360.614 10.7874 361.156 11.0952C361.704 11.3968 362.122 11.7415 362.412 12.1293C362.707 12.5109 362.935 12.8248 363.095 13.071H363.317V10.8182H365.422V25.4062C365.422 26.625 365.145 27.616 364.591 28.3793C364.043 29.1487 363.304 29.7119 362.375 30.0689C361.452 30.4321 360.424 30.6136 359.291 30.6136ZM359.217 22.821C360.091 22.821 360.83 22.621 361.433 22.2209C362.036 21.8208 362.495 21.2453 362.809 20.4943C363.123 19.7434 363.28 18.8447 363.28 17.7983C363.28 16.7765 363.126 15.8748 362.818 15.093C362.51 14.3113 362.055 13.6989 361.452 13.2557C360.848 12.8125 360.104 12.5909 359.217 12.5909C358.294 12.5909 357.524 12.8248 356.909 13.2926C356.3 13.7604 355.841 14.3883 355.533 15.1761C355.232 15.964 355.081 16.8381 355.081 17.7983C355.081 18.7831 355.235 19.6541 355.542 20.4112C355.856 21.1622 356.318 21.7531 356.927 22.1839C357.543 22.6087 358.306 22.821 359.217 22.821ZM371.589 16.4688V25H369.41V6.09091H371.589V13.0341H371.774C372.106 12.3016 372.605 11.7199 373.27 11.2891C373.941 10.852 374.833 10.6335 375.947 10.6335C376.914 10.6335 377.76 10.8274 378.486 11.2152C379.213 11.5968 379.776 12.1847 380.176 12.9787C380.582 13.7666 380.785 14.7699 380.785 15.9886V25H378.606V16.1364C378.606 15.0099 378.314 14.139 377.729 13.5234C377.151 12.9018 376.347 12.5909 375.319 12.5909C374.605 12.5909 373.965 12.7417 373.399 13.0433C372.839 13.3449 372.396 13.785 372.069 14.3636C371.749 14.9422 371.589 15.6439 371.589 16.4688ZM390.939 10.8182V12.6648H383.59V10.8182H390.939ZM385.732 7.42045H387.911V20.9375C387.911 21.553 388 22.0147 388.179 22.3224C388.363 22.6241 388.597 22.8272 388.88 22.9318C389.17 23.0303 389.474 23.0795 389.794 23.0795C390.034 23.0795 390.231 23.0672 390.385 23.0426C390.539 23.0118 390.662 22.9872 390.755 22.9688L391.198 24.9261C391.05 24.9815 390.844 25.0369 390.579 25.0923C390.315 25.1539 389.979 25.1847 389.573 25.1847C388.957 25.1847 388.354 25.0523 387.763 24.7876C387.178 24.523 386.692 24.1198 386.304 23.5781C385.923 23.0365 385.732 22.3532 385.732 21.5284V7.42045Z" fill="black"/>
<line x1="83" y1="66" x2="83" y2="715" stroke="black" stroke-width="2"/>
<line x1="82" y1="714" x2="731" y2="714" stroke="black" stroke-width="2"/>
<line x1="84" y1="634.5" x2="731" y2="634.5" stroke="#D6D6D6"/>
<line x1="84" y1="554.5" x2="731" y2="554.5" stroke="#D6D6D6"/>
<line x1="84" y1="474.5" x2="731" y2="474.5" stroke="#D6D6D6"/>
<line x1="84" y1="394.5" x2="731" y2="394.5" stroke="#D6D6D6"/>
<line x1="84" y1="314.5" x2="731" y2="314.5" stroke="#D6D6D6"/>
<line x1="84" y1="234.5" x2="731" y2="234.5" stroke="#D6D6D6"/>
<line x1="84" y1="154.5" x2="731" y2="154.5" stroke="#D6D6D6"/>
<line x1="84" y1="74.5" x2="731" y2="74.5" stroke="#D6D6D6"/>
<path d="M59.6193 627.455V642H57.858V629.301H57.7727L54.2216 631.659V629.869L57.858 627.455H59.6193Z" fill="black"/>
<path d="M51.5057 562V560.722L56.3068 555.466C56.8703 554.85 57.3343 554.315 57.6989 553.861C58.0634 553.402 58.3333 552.971 58.5085 552.568C58.6884 552.161 58.7784 551.735 58.7784 551.29C58.7784 550.778 58.6553 550.336 58.4091 549.962C58.1676 549.588 57.8362 549.299 57.4148 549.095C56.9934 548.892 56.5199 548.79 55.9943 548.79C55.4356 548.79 54.9479 548.906 54.5312 549.138C54.1193 549.365 53.7997 549.685 53.5724 550.097C53.3499 550.509 53.2386 550.991 53.2386 551.545H51.5625C51.5625 550.693 51.759 549.945 52.152 549.301C52.545 548.657 53.08 548.155 53.7571 547.795C54.4389 547.436 55.2036 547.256 56.0511 547.256C56.9034 547.256 57.6586 547.436 58.3168 547.795C58.9749 548.155 59.491 548.641 59.8651 549.251C60.2391 549.862 60.4261 550.542 60.4261 551.29C60.4261 551.825 60.3291 552.348 60.1349 552.859C59.9455 553.366 59.6141 553.932 59.1406 554.557C58.6719 555.177 58.0208 555.935 57.1875 556.83L53.9205 560.324V560.438H60.6818V562H51.5057Z" fill="black"/>
<path d="M56.4205 482.199C55.483 482.199 54.6473 482.038 53.9134 481.716C53.1842 481.394 52.6042 480.946 52.1733 480.374C51.7472 479.796 51.5152 479.126 51.4773 478.364H53.267C53.3049 478.832 53.4659 479.237 53.75 479.578C54.0341 479.914 54.4058 480.175 54.8651 480.359C55.3243 480.544 55.8333 480.636 56.392 480.636C57.017 480.636 57.571 480.527 58.054 480.31C58.5369 480.092 58.9157 479.789 59.1903 479.401C59.465 479.012 59.6023 478.562 59.6023 478.051C59.6023 477.516 59.4697 477.045 59.2045 476.638C58.9394 476.226 58.5511 475.904 58.0398 475.672C57.5284 475.44 56.9034 475.324 56.1648 475.324H55V473.761H56.1648C56.7424 473.761 57.2491 473.657 57.6847 473.449C58.125 473.241 58.4683 472.947 58.7145 472.568C58.9654 472.189 59.0909 471.744 59.0909 471.233C59.0909 470.741 58.982 470.312 58.7642 469.947C58.5464 469.583 58.2386 469.299 57.8409 469.095C57.4479 468.892 56.9839 468.79 56.4489 468.79C55.947 468.79 55.4735 468.882 55.0284 469.067C54.5881 469.247 54.2282 469.509 53.9489 469.855C53.6695 470.196 53.518 470.608 53.4943 471.091H51.7898C51.8182 470.329 52.0478 469.661 52.4787 469.088C52.9096 468.51 53.473 468.061 54.169 467.739C54.8698 467.417 55.6392 467.256 56.4773 467.256C57.3769 467.256 58.1487 467.438 58.7926 467.803C59.4366 468.162 59.9313 468.638 60.277 469.23C60.6226 469.822 60.7955 470.461 60.7955 471.148C60.7955 471.967 60.58 472.665 60.1491 473.243C59.723 473.821 59.143 474.221 58.4091 474.443V474.557C59.3277 474.708 60.045 475.099 60.5611 475.729C61.0772 476.354 61.3352 477.128 61.3352 478.051C61.3352 478.842 61.1198 479.552 60.6889 480.182C60.2628 480.807 59.6804 481.299 58.9418 481.659C58.2031 482.019 57.3627 482.199 56.4205 482.199Z" fill="black"/>
<path d="M51.1648 399.017V397.568L57.5568 387.455H58.608V389.699H57.8977L53.0682 397.341V397.455H61.6761V399.017H51.1648ZM58.0114 402V398.577V397.902V387.455H59.6875V402H58.0114Z" fill="black"/>
<path d="M56.0511 322.199C55.2178 322.199 54.4673 322.033 53.7997 321.702C53.1321 321.37 52.5971 320.916 52.1946 320.338C51.7921 319.76 51.572 319.102 51.5341 318.364H53.2386C53.3049 319.022 53.6032 319.566 54.1335 319.997C54.6686 320.423 55.3078 320.636 56.0511 320.636C56.6477 320.636 57.178 320.497 57.642 320.217C58.1108 319.938 58.4777 319.554 58.7429 319.067C59.0128 318.574 59.1477 318.018 59.1477 317.398C59.1477 316.763 59.008 316.197 58.7287 315.7C58.4541 315.198 58.0753 314.803 57.5923 314.514C57.1094 314.225 56.5578 314.079 55.9375 314.074C55.4924 314.069 55.0355 314.138 54.5668 314.28C54.098 314.417 53.7121 314.595 53.4091 314.812L51.7614 314.614L52.642 307.455H60.1989V309.017H54.1193L53.608 313.307H53.6932C53.9915 313.07 54.3655 312.874 54.8153 312.717C55.2652 312.561 55.7339 312.483 56.2216 312.483C57.1117 312.483 57.9048 312.696 58.6009 313.122C59.3016 313.544 59.8509 314.121 60.2486 314.855C60.651 315.589 60.8523 316.427 60.8523 317.369C60.8523 318.297 60.6439 319.126 60.2273 319.855C59.8153 320.58 59.2472 321.152 58.5227 321.574C57.7983 321.991 56.9744 322.199 56.0511 322.199Z" fill="black"/>
<path d="M56.3352 242.199C55.7386 242.189 55.142 242.076 54.5455 241.858C53.9489 241.64 53.4044 241.273 52.9119 240.757C52.4195 240.236 52.0241 239.533 51.7259 238.648C51.4276 237.758 51.2784 236.64 51.2784 235.295C51.2784 234.008 51.3991 232.866 51.6406 231.872C51.8821 230.873 52.2325 230.033 52.6918 229.351C53.151 228.664 53.705 228.143 54.3537 227.788C55.0071 227.433 55.7434 227.256 56.5625 227.256C57.3769 227.256 58.1013 227.419 58.7358 227.746C59.375 228.068 59.8958 228.518 60.2983 229.095C60.7008 229.673 60.9612 230.338 61.0795 231.091H59.3466C59.1856 230.437 58.8731 229.895 58.4091 229.464C57.9451 229.034 57.3295 228.818 56.5625 228.818C55.4356 228.818 54.5478 229.308 53.8991 230.288C53.2552 231.268 52.9309 232.644 52.9261 234.415H53.0398C53.3049 234.012 53.6198 233.669 53.9844 233.385C54.3537 233.096 54.7609 232.874 55.206 232.717C55.651 232.561 56.1222 232.483 56.6193 232.483C57.4527 232.483 58.215 232.691 58.9062 233.108C59.5975 233.52 60.1515 234.09 60.5682 234.82C60.9848 235.544 61.1932 236.375 61.1932 237.312C61.1932 238.212 60.992 239.036 60.5895 239.784C60.187 240.527 59.6212 241.119 58.892 241.56C58.1676 241.995 57.3153 242.208 56.3352 242.199ZM56.3352 240.636C56.9318 240.636 57.4669 240.487 57.9403 240.189C58.4186 239.891 58.795 239.491 59.0696 238.989C59.349 238.487 59.4886 237.928 59.4886 237.312C59.4886 236.711 59.3537 236.164 59.0838 235.672C58.8187 235.175 58.4517 234.779 57.983 234.486C57.5189 234.192 56.9886 234.045 56.392 234.045C55.9422 234.045 55.5232 234.135 55.1349 234.315C54.7467 234.491 54.4058 234.732 54.1122 235.04C53.8234 235.348 53.5961 235.7 53.4304 236.098C53.2647 236.491 53.1818 236.905 53.1818 237.341C53.1818 237.919 53.3168 238.458 53.5866 238.96C53.8613 239.462 54.2353 239.867 54.7088 240.175C55.187 240.482 55.7292 240.636 56.3352 240.636Z" fill="black"/>
<path d="M52.9602 162L59.4659 149.131V149.017H51.9659V147.455H61.2841V149.102L54.8068 162H52.9602Z" fill="black"/>
<path d="M56.1648 82.1989C55.1894 82.1989 54.3277 82.026 53.5795 81.6804C52.8362 81.33 52.2562 80.8494 51.8395 80.2386C51.4228 79.6231 51.2169 78.9223 51.2216 78.1364C51.2169 77.5208 51.3376 76.9527 51.5838 76.4318C51.83 75.9062 52.1662 75.4683 52.5923 75.1179C53.0232 74.7628 53.5038 74.5379 54.0341 74.4432V74.358C53.3381 74.178 52.7841 73.7874 52.3722 73.1861C51.9602 72.58 51.7566 71.8911 51.7614 71.1193C51.7566 70.3807 51.9437 69.7202 52.3224 69.1378C52.7012 68.5554 53.2221 68.0961 53.8849 67.7599C54.5526 67.4238 55.3125 67.2557 56.1648 67.2557C57.0076 67.2557 57.7604 67.4238 58.4233 67.7599C59.0862 68.0961 59.607 68.5554 59.9858 69.1378C60.3693 69.7202 60.5634 70.3807 60.5682 71.1193C60.5634 71.8911 60.3527 72.58 59.9361 73.1861C59.5241 73.7874 58.9773 74.178 58.2955 74.358V74.4432C58.821 74.5379 59.2945 74.7628 59.7159 75.1179C60.1373 75.4683 60.4735 75.9062 60.7244 76.4318C60.9754 76.9527 61.1032 77.5208 61.108 78.1364C61.1032 78.9223 60.8902 79.6231 60.4688 80.2386C60.0521 80.8494 59.4721 81.33 58.7287 81.6804C57.9901 82.026 57.1354 82.1989 56.1648 82.1989ZM56.1648 80.6364C56.8229 80.6364 57.3911 80.5298 57.8693 80.3168C58.3475 80.1037 58.7169 79.803 58.9773 79.4148C59.2377 79.0265 59.3703 78.572 59.375 78.0511C59.3703 77.5019 59.2282 77.0166 58.9489 76.5952C58.6695 76.1738 58.2884 75.8423 57.8054 75.6009C57.3272 75.3594 56.7803 75.2386 56.1648 75.2386C55.5445 75.2386 54.9905 75.3594 54.5028 75.6009C54.0199 75.8423 53.6387 76.1738 53.3594 76.5952C53.0848 77.0166 52.9498 77.5019 52.9545 78.0511C52.9498 78.572 53.0753 79.0265 53.331 79.4148C53.5914 79.803 53.9631 80.1037 54.446 80.3168C54.929 80.5298 55.5019 80.6364 56.1648 80.6364ZM56.1648 73.733C56.6856 73.733 57.1473 73.6288 57.5497 73.4205C57.9569 73.2121 58.2765 72.9209 58.5085 72.5469C58.7405 72.1728 58.8589 71.7348 58.8636 71.233C58.8589 70.7405 58.7429 70.312 58.5156 69.9474C58.2884 69.5781 57.9735 69.294 57.571 69.0952C57.1686 68.8916 56.6998 68.7898 56.1648 68.7898C55.6203 68.7898 55.1444 68.8916 54.7372 69.0952C54.33 69.294 54.0152 69.5781 53.7926 69.9474C53.5701 70.312 53.4612 70.7405 53.4659 71.233C53.4612 71.7348 53.5724 72.1728 53.7997 72.5469C54.0317 72.9209 54.3513 73.2121 54.7585 73.4205C55.1657 73.6288 55.6345 73.733 56.1648 73.733Z" fill="black"/>
<path d="M19 434.642L19 436.489L4.45454 431.148L4.45454 429.33L19 423.989L19 425.835L6.75568 430.182L6.75568 430.295L19 434.642ZM13.3182 433.96L13.3182 426.517L14.8807 426.517L14.8807 433.96L13.3182 433.96ZM19.2273 417.518C19.2273 418.541 18.9858 419.422 18.5028 420.161C18.0199 420.899 17.3546 421.467 16.5071 421.865C15.6596 422.263 14.6913 422.462 13.6023 422.462C12.4943 422.462 11.5166 422.258 10.669 421.851C9.81676 421.439 9.15151 420.866 8.67329 420.132C8.19034 419.393 7.94886 418.532 7.94886 417.547C7.94886 416.78 8.09091 416.089 8.375 415.473C8.65909 414.857 9.05682 414.353 9.56818 413.96C10.0795 413.567 10.6761 413.323 11.358 413.229L11.358 414.905C10.8608 415.033 10.4205 415.317 10.0369 415.757C9.64867 416.193 9.45454 416.78 9.45454 417.518C9.45454 418.172 9.625 418.745 9.96591 419.237C10.3021 419.725 10.7779 420.106 11.3935 420.381C12.0043 420.651 12.7216 420.786 13.5455 420.786C14.3883 420.786 15.1222 420.653 15.7472 420.388C16.3722 420.118 16.8575 419.739 17.2031 419.251C17.5488 418.759 17.7216 418.181 17.7216 417.518C17.7216 417.083 17.6458 416.687 17.4943 416.332C17.3428 415.977 17.125 415.677 16.8409 415.43C16.5568 415.184 16.2159 415.009 15.8182 414.905L15.8182 413.229C16.4621 413.323 17.0421 413.558 17.5582 413.932C18.0696 414.301 18.4768 414.791 18.7798 415.402C19.0781 416.008 19.2273 416.714 19.2273 417.518ZM19.2273 406.347C19.2273 407.369 18.9858 408.25 18.5028 408.989C18.0199 409.727 17.3546 410.295 16.5071 410.693C15.6596 411.091 14.6913 411.29 13.6023 411.29C12.4943 411.29 11.5166 411.086 10.669 410.679C9.81676 410.267 9.15151 409.694 8.67329 408.96C8.19034 408.222 7.94886 407.36 7.94886 406.375C7.94886 405.608 8.09091 404.917 8.375 404.301C8.65909 403.686 9.05682 403.181 9.56818 402.788C10.0795 402.395 10.6761 402.152 11.358 402.057L11.358 403.733C10.8608 403.861 10.4205 404.145 10.0369 404.585C9.64867 405.021 9.45454 405.608 9.45454 406.347C9.45454 407 9.625 407.573 9.96591 408.065C10.3021 408.553 10.7779 408.934 11.3935 409.209C12.0043 409.479 12.7216 409.614 13.5455 409.614C14.3883 409.614 15.1222 409.481 15.7472 409.216C16.3722 408.946 16.8575 408.567 17.2031 408.08C17.5488 407.587 17.7216 407.009 17.7216 406.347C17.7216 405.911 17.6458 405.516 17.4943 405.161C17.3428 404.805 17.125 404.505 16.8409 404.259C16.5568 404.012 16.2159 403.837 15.8182 403.733L15.8182 402.057C16.4621 402.152 17.0421 402.386 17.5582 402.76C18.0696 403.129 18.4768 403.619 18.7798 404.23C19.0781 404.836 19.2273 405.542 19.2273 406.347ZM14.5398 392.732L8.09091 392.732L8.09091 391.055L19 391.055L19 392.732L17.1534 392.732L17.1534 392.845C17.7074 393.101 18.1785 393.499 18.5668 394.038C18.9503 394.578 19.142 395.26 19.142 396.084C19.142 396.766 18.9929 397.372 18.6946 397.902C18.3916 398.432 17.937 398.849 17.331 399.152C16.7202 399.455 15.9508 399.607 15.0227 399.607L8.09091 399.607L8.09091 397.93L14.9091 397.93C15.7045 397.93 16.339 397.708 16.8125 397.263C17.286 396.813 17.5227 396.24 17.5227 395.544C17.5227 395.127 17.4162 394.704 17.2031 394.273C16.9901 393.837 16.6634 393.473 16.223 393.179C15.7827 392.881 15.2216 392.732 14.5398 392.732ZM19 387.985L8.09091 387.985L8.09091 386.366L9.73863 386.366L9.73863 386.252C9.19886 386.054 8.76089 385.694 8.42471 385.173C8.08854 384.652 7.92045 384.065 7.92045 383.412C7.92045 383.288 7.92282 383.135 7.92755 382.95C7.93229 382.765 7.93939 382.626 7.94886 382.531L9.65341 382.531C9.6392 382.588 9.61789 382.718 9.58949 382.922C9.55634 383.12 9.53977 383.331 9.53977 383.554C9.53977 384.084 9.65104 384.557 9.87358 384.974C10.0914 385.386 10.3944 385.713 10.7827 385.954C11.1662 386.191 11.6042 386.309 12.0966 386.309L19 386.309L19 387.985ZM19.2557 377.334C19.2557 378.025 19.1255 378.652 18.8651 379.216C18.5999 379.779 18.2187 380.227 17.7216 380.558C17.2197 380.89 16.6136 381.055 15.9034 381.055C15.2784 381.055 14.7718 380.932 14.3835 380.686C13.9905 380.44 13.6828 380.111 13.4602 379.699C13.2377 379.287 13.072 378.832 12.9631 378.335C12.8494 377.833 12.7595 377.329 12.6932 376.822C12.608 376.16 12.544 375.622 12.5014 375.21C12.4541 374.794 12.3759 374.491 12.267 374.301C12.1581 374.107 11.9687 374.01 11.6989 374.01L11.642 374.01C10.9413 374.01 10.3968 374.202 10.0085 374.585C9.62026 374.964 9.42613 375.539 9.42613 376.311C9.42613 377.111 9.60132 377.739 9.9517 378.193C10.3021 378.648 10.6761 378.967 11.0739 379.152L10.5057 380.743C9.8428 380.459 9.3267 380.08 8.95738 379.607C8.58333 379.128 8.32291 378.607 8.17613 378.044C8.02462 377.476 7.94886 376.917 7.94886 376.368C7.94886 376.018 7.99147 375.615 8.0767 375.161C8.15719 374.701 8.32528 374.259 8.58096 373.832C8.83664 373.402 9.22254 373.044 9.73863 372.76C10.2547 372.476 10.946 372.334 11.8125 372.334L19 372.334L19 374.01L17.5227 374.01L17.5227 374.095C17.7595 374.209 18.0128 374.398 18.2827 374.663C18.5526 374.929 18.7822 375.281 18.9716 375.722C19.161 376.162 19.2557 376.699 19.2557 377.334ZM17.75 377.078C17.75 376.415 17.6198 375.857 17.3594 375.402C17.099 374.943 16.7628 374.597 16.3508 374.365C15.9389 374.128 15.5057 374.01 15.0511 374.01L13.517 374.01C13.6023 374.081 13.6804 374.237 13.7514 374.479C13.8177 374.715 13.8769 374.99 13.929 375.303C13.9763 375.61 14.0189 375.911 14.0568 376.205C14.09 376.493 14.1184 376.728 14.142 376.908C14.1989 377.343 14.2912 377.75 14.419 378.129C14.5421 378.503 14.7292 378.806 14.9801 379.038C15.2263 379.266 15.5625 379.379 15.9886 379.379C16.571 379.379 17.0114 379.164 17.3097 378.733C17.6032 378.297 17.75 377.746 17.75 377.078ZM12.4375 367.598L19 367.598L19 369.275L8.09091 369.275L8.09091 367.655L9.79545 367.655L9.79545 367.513C9.24147 367.257 8.7964 366.869 8.46022 366.348C8.11932 365.828 7.94886 365.155 7.94886 364.331C7.94886 363.593 8.10038 362.946 8.40341 362.392C8.7017 361.838 9.15625 361.408 9.76704 361.1C10.3731 360.792 11.1401 360.638 12.0682 360.638L19 360.638L19 362.314L12.1818 362.314C11.3248 362.314 10.6572 362.537 10.179 362.982C9.69602 363.427 9.45454 364.038 9.45454 364.814C9.45454 365.349 9.57055 365.828 9.80255 366.249C10.0346 366.666 10.3731 366.995 10.8182 367.236C11.2633 367.478 11.803 367.598 12.4375 367.598ZM19.2273 353.143C19.2273 354.166 18.9858 355.047 18.5028 355.786C18.0199 356.524 17.3546 357.092 16.5071 357.49C15.6596 357.888 14.6913 358.087 13.6023 358.087C12.4943 358.087 11.5166 357.883 10.669 357.476C9.81676 357.064 9.15151 356.491 8.67329 355.757C8.19034 355.018 7.94886 354.157 7.94886 353.172C7.94886 352.405 8.09091 351.714 8.375 351.098C8.65909 350.482 9.05681 349.978 9.56818 349.585C10.0795 349.192 10.6761 348.948 11.358 348.854L11.358 350.53C10.8608 350.658 10.4205 350.942 10.0369 351.382C9.64867 351.818 9.45454 352.405 9.45454 353.143C9.45454 353.797 9.625 354.37 9.96591 354.862C10.3021 355.35 10.7779 355.731 11.3935 356.006C12.0043 356.276 12.7216 356.411 13.5455 356.411C14.3883 356.411 15.1222 356.278 15.7472 356.013C16.3722 355.743 16.8575 355.364 17.2031 354.876C17.5488 354.384 17.7216 353.806 17.7216 353.143C17.7216 352.708 17.6458 352.312 17.4943 351.957C17.3428 351.602 17.125 351.302 16.8409 351.055C16.5568 350.809 16.2159 350.634 15.8182 350.53L15.8182 348.854C16.4621 348.948 17.0421 349.183 17.5582 349.557C18.0696 349.926 18.4768 350.416 18.7798 351.027C19.0781 351.633 19.2273 352.339 19.2273 353.143ZM23.0909 345.324C23.0909 345.608 23.0672 345.861 23.0199 346.084C22.9773 346.306 22.9347 346.46 22.892 346.545L21.4148 346.119C21.5189 345.712 21.5568 345.352 21.5284 345.04C21.5 344.727 21.3603 344.45 21.1094 344.209C20.8632 343.963 20.4631 343.738 19.9091 343.534L19.0568 343.222L8.0909 347.256L8.0909 345.437L16.7841 342.426L16.7841 342.312L8.0909 339.301L8.0909 337.483L20.5909 342.114C21.1544 342.322 21.6207 342.58 21.9901 342.888C22.3641 343.196 22.6411 343.553 22.821 343.96C23.0009 344.363 23.0909 344.817 23.0909 345.324Z" fill="black"/>
<path d="M118.619 733.455V748H116.858V735.301H116.773L113.222 737.659V735.869L116.858 733.455H118.619ZM127.547 748.199C126.477 748.199 125.565 747.908 124.812 747.325C124.06 746.738 123.484 745.888 123.087 744.776C122.689 743.658 122.49 742.309 122.49 740.727C122.49 739.155 122.689 737.813 123.087 736.7C123.489 735.583 124.067 734.731 124.82 734.143C125.577 733.552 126.486 733.256 127.547 733.256C128.607 733.256 129.514 733.552 130.267 734.143C131.025 734.731 131.602 735.583 132 736.7C132.402 737.813 132.604 739.155 132.604 740.727C132.604 742.309 132.405 743.658 132.007 744.776C131.609 745.888 131.034 746.738 130.281 747.325C129.528 747.908 128.617 748.199 127.547 748.199ZM127.547 746.636C128.607 746.636 129.431 746.125 130.018 745.102C130.606 744.08 130.899 742.621 130.899 740.727C130.899 739.468 130.764 738.395 130.494 737.51C130.229 736.625 129.846 735.95 129.344 735.486C128.847 735.022 128.248 734.79 127.547 734.79C126.496 734.79 125.674 735.308 125.082 736.345C124.491 737.377 124.195 738.838 124.195 740.727C124.195 741.987 124.327 743.057 124.592 743.938C124.857 744.818 125.239 745.488 125.736 745.947C126.238 746.407 126.841 746.636 127.547 746.636Z" fill="black"/>
<path d="M225.506 748V746.722L230.307 741.466C230.87 740.85 231.334 740.315 231.699 739.861C232.063 739.402 232.333 738.971 232.509 738.568C232.688 738.161 232.778 737.735 232.778 737.29C232.778 736.778 232.655 736.336 232.409 735.962C232.168 735.588 231.836 735.299 231.415 735.095C230.993 734.892 230.52 734.79 229.994 734.79C229.436 734.79 228.948 734.906 228.531 735.138C228.119 735.365 227.8 735.685 227.572 736.097C227.35 736.509 227.239 736.991 227.239 737.545H225.562C225.562 736.693 225.759 735.945 226.152 735.301C226.545 734.657 227.08 734.155 227.757 733.795C228.439 733.436 229.204 733.256 230.051 733.256C230.903 733.256 231.659 733.436 232.317 733.795C232.975 734.155 233.491 734.641 233.865 735.251C234.239 735.862 234.426 736.542 234.426 737.29C234.426 737.825 234.329 738.348 234.135 738.859C233.946 739.366 233.614 739.932 233.141 740.557C232.672 741.177 232.021 741.935 231.188 742.83L227.92 746.324V746.438H234.682V748H225.506ZM242.359 748.199C241.289 748.199 240.378 747.908 239.625 747.325C238.872 746.738 238.297 745.888 237.899 744.776C237.501 743.658 237.303 742.309 237.303 740.727C237.303 739.155 237.501 737.813 237.899 736.7C238.302 735.583 238.879 734.731 239.632 734.143C240.39 733.552 241.299 733.256 242.359 733.256C243.42 733.256 244.327 733.552 245.08 734.143C245.837 734.731 246.415 735.583 246.812 736.7C247.215 737.813 247.416 739.155 247.416 740.727C247.416 742.309 247.217 743.658 246.82 744.776C246.422 745.888 245.847 746.738 245.094 747.325C244.341 747.908 243.429 748.199 242.359 748.199ZM242.359 746.636C243.42 746.636 244.244 746.125 244.831 745.102C245.418 744.08 245.712 742.621 245.712 740.727C245.712 739.468 245.577 738.395 245.307 737.51C245.042 736.625 244.658 735.95 244.156 735.486C243.659 735.022 243.06 734.79 242.359 734.79C241.308 734.79 240.487 735.308 239.895 736.345C239.303 737.377 239.007 738.838 239.007 740.727C239.007 741.987 239.14 743.057 239.405 743.938C239.67 744.818 240.051 745.488 240.548 745.947C241.05 746.407 241.654 746.636 242.359 746.636Z" fill="black"/>
<path d="M345.42 748.199C344.483 748.199 343.647 748.038 342.913 747.716C342.184 747.394 341.604 746.946 341.173 746.374C340.747 745.796 340.515 745.126 340.477 744.364H342.267C342.305 744.832 342.466 745.237 342.75 745.578C343.034 745.914 343.406 746.175 343.865 746.359C344.324 746.544 344.833 746.636 345.392 746.636C346.017 746.636 346.571 746.527 347.054 746.31C347.537 746.092 347.916 745.789 348.19 745.401C348.465 745.012 348.602 744.562 348.602 744.051C348.602 743.516 348.47 743.045 348.205 742.638C347.939 742.226 347.551 741.904 347.04 741.672C346.528 741.44 345.903 741.324 345.165 741.324H344V739.761H345.165C345.742 739.761 346.249 739.657 346.685 739.449C347.125 739.241 347.468 738.947 347.714 738.568C347.965 738.189 348.091 737.744 348.091 737.233C348.091 736.741 347.982 736.312 347.764 735.947C347.546 735.583 347.239 735.299 346.841 735.095C346.448 734.892 345.984 734.79 345.449 734.79C344.947 734.79 344.473 734.882 344.028 735.067C343.588 735.247 343.228 735.509 342.949 735.855C342.67 736.196 342.518 736.608 342.494 737.091H340.79C340.818 736.329 341.048 735.661 341.479 735.088C341.91 734.51 342.473 734.061 343.169 733.739C343.87 733.417 344.639 733.256 345.477 733.256C346.377 733.256 347.149 733.438 347.793 733.803C348.437 734.162 348.931 734.638 349.277 735.23C349.623 735.822 349.795 736.461 349.795 737.148C349.795 737.967 349.58 738.665 349.149 739.243C348.723 739.821 348.143 740.221 347.409 740.443V740.557C348.328 740.708 349.045 741.099 349.561 741.729C350.077 742.354 350.335 743.128 350.335 744.051C350.335 744.842 350.12 745.552 349.689 746.182C349.263 746.807 348.68 747.299 347.942 747.659C347.203 748.019 346.363 748.199 345.42 748.199ZM357.984 748.199C356.914 748.199 356.003 747.908 355.25 747.325C354.497 746.738 353.922 745.888 353.524 744.776C353.126 743.658 352.928 742.309 352.928 740.727C352.928 739.155 353.126 737.813 353.524 736.7C353.927 735.583 354.504 734.731 355.257 734.143C356.015 733.552 356.924 733.256 357.984 733.256C359.045 733.256 359.952 733.552 360.705 734.143C361.462 734.731 362.04 735.583 362.438 736.7C362.84 737.813 363.041 739.155 363.041 740.727C363.041 742.309 362.842 743.658 362.445 744.776C362.047 745.888 361.472 746.738 360.719 747.325C359.966 747.908 359.054 748.199 357.984 748.199ZM357.984 746.636C359.045 746.636 359.869 746.125 360.456 745.102C361.043 744.08 361.337 742.621 361.337 740.727C361.337 739.468 361.202 738.395 360.932 737.51C360.667 736.625 360.283 735.95 359.781 735.486C359.284 735.022 358.685 734.79 357.984 734.79C356.933 734.79 356.112 735.308 355.52 736.345C354.928 737.377 354.632 738.838 354.632 740.727C354.632 741.987 354.765 743.057 355.03 743.938C355.295 744.818 355.676 745.488 356.173 745.947C356.675 746.407 357.279 746.636 357.984 746.636Z" fill="black"/>
<path d="M456.165 745.017V743.568L462.557 733.455H463.608V735.699H462.898L458.068 743.341V743.455H466.676V745.017H456.165ZM463.011 748V744.577V743.902V733.455H464.688V748H463.011ZM474.082 748.199C473.012 748.199 472.1 747.908 471.348 747.325C470.595 746.738 470.02 745.888 469.622 744.776C469.224 743.658 469.025 742.309 469.025 740.727C469.025 739.155 469.224 737.813 469.622 736.7C470.024 735.583 470.602 734.731 471.355 734.143C472.112 733.552 473.021 733.256 474.082 733.256C475.143 733.256 476.049 733.552 476.802 734.143C477.56 734.731 478.137 735.583 478.535 736.7C478.938 737.813 479.139 739.155 479.139 740.727C479.139 742.309 478.94 743.658 478.542 744.776C478.145 745.888 477.569 746.738 476.816 747.325C476.064 747.908 475.152 748.199 474.082 748.199ZM474.082 746.636C475.143 746.636 475.967 746.125 476.554 745.102C477.141 744.08 477.434 742.621 477.434 740.727C477.434 739.468 477.299 738.395 477.029 737.51C476.764 736.625 476.381 735.95 475.879 735.486C475.382 735.022 474.783 734.79 474.082 734.79C473.031 734.79 472.209 735.308 471.618 736.345C471.026 737.377 470.73 738.838 470.73 740.727C470.73 741.987 470.862 743.057 471.127 743.938C471.393 744.818 471.774 745.488 472.271 745.947C472.773 746.407 473.377 746.636 474.082 746.636Z" fill="black"/>
<path d="M577.051 748.199C576.218 748.199 575.467 748.033 574.8 747.702C574.132 747.37 573.597 746.916 573.195 746.338C572.792 745.76 572.572 745.102 572.534 744.364H574.239C574.305 745.022 574.603 745.566 575.134 745.997C575.669 746.423 576.308 746.636 577.051 746.636C577.648 746.636 578.178 746.497 578.642 746.217C579.111 745.938 579.478 745.554 579.743 745.067C580.013 744.574 580.148 744.018 580.148 743.398C580.148 742.763 580.008 742.197 579.729 741.7C579.454 741.198 579.075 740.803 578.592 740.514C578.109 740.225 577.558 740.079 576.938 740.074C576.492 740.069 576.036 740.138 575.567 740.28C575.098 740.417 574.712 740.595 574.409 740.812L572.761 740.614L573.642 733.455H581.199V735.017H575.119L574.608 739.307H574.693C574.991 739.07 575.366 738.874 575.815 738.717C576.265 738.561 576.734 738.483 577.222 738.483C578.112 738.483 578.905 738.696 579.601 739.122C580.302 739.544 580.851 740.121 581.249 740.855C581.651 741.589 581.852 742.427 581.852 743.369C581.852 744.297 581.644 745.126 581.227 745.855C580.815 746.58 580.247 747.152 579.523 747.574C578.798 747.991 577.974 748.199 577.051 748.199ZM589.418 748.199C588.348 748.199 587.436 747.908 586.684 747.325C585.931 746.738 585.355 745.888 584.958 744.776C584.56 743.658 584.361 742.309 584.361 740.727C584.361 739.155 584.56 737.813 584.958 736.7C585.36 735.583 585.938 734.731 586.691 734.143C587.448 733.552 588.357 733.256 589.418 733.256C590.479 733.256 591.385 733.552 592.138 734.143C592.896 734.731 593.473 735.583 593.871 736.7C594.274 737.813 594.475 739.155 594.475 740.727C594.475 742.309 594.276 743.658 593.878 744.776C593.48 745.888 592.905 746.738 592.152 747.325C591.4 747.908 590.488 748.199 589.418 748.199ZM589.418 746.636C590.479 746.636 591.302 746.125 591.89 745.102C592.477 744.08 592.77 742.621 592.77 740.727C592.77 739.468 592.635 738.395 592.365 737.51C592.1 736.625 591.717 735.95 591.215 735.486C590.718 735.022 590.119 734.79 589.418 734.79C588.367 734.79 587.545 735.308 586.953 736.345C586.362 737.377 586.066 738.838 586.066 740.727C586.066 741.987 586.198 743.057 586.463 743.938C586.729 744.818 587.11 745.488 587.607 745.947C588.109 746.407 588.712 746.636 589.418 746.636Z" fill="black"/>
<path d="M692.335 748.199C691.739 748.189 691.142 748.076 690.545 747.858C689.949 747.64 689.404 747.273 688.912 746.757C688.42 746.236 688.024 745.533 687.726 744.648C687.428 743.758 687.278 742.64 687.278 741.295C687.278 740.008 687.399 738.866 687.641 737.872C687.882 736.873 688.232 736.033 688.692 735.351C689.151 734.664 689.705 734.143 690.354 733.788C691.007 733.433 691.743 733.256 692.562 733.256C693.377 733.256 694.101 733.419 694.736 733.746C695.375 734.068 695.896 734.518 696.298 735.095C696.701 735.673 696.961 736.338 697.08 737.091H695.347C695.186 736.437 694.873 735.895 694.409 735.464C693.945 735.034 693.33 734.818 692.562 734.818C691.436 734.818 690.548 735.308 689.899 736.288C689.255 737.268 688.931 738.644 688.926 740.415H689.04C689.305 740.012 689.62 739.669 689.984 739.385C690.354 739.096 690.761 738.874 691.206 738.717C691.651 738.561 692.122 738.483 692.619 738.483C693.453 738.483 694.215 738.691 694.906 739.108C695.598 739.52 696.152 740.09 696.568 740.82C696.985 741.544 697.193 742.375 697.193 743.312C697.193 744.212 696.992 745.036 696.589 745.784C696.187 746.527 695.621 747.119 694.892 747.56C694.168 747.995 693.315 748.208 692.335 748.199ZM692.335 746.636C692.932 746.636 693.467 746.487 693.94 746.189C694.419 745.891 694.795 745.491 695.07 744.989C695.349 744.487 695.489 743.928 695.489 743.312C695.489 742.711 695.354 742.164 695.084 741.672C694.819 741.175 694.452 740.779 693.983 740.486C693.519 740.192 692.989 740.045 692.392 740.045C691.942 740.045 691.523 740.135 691.135 740.315C690.747 740.491 690.406 740.732 690.112 741.04C689.823 741.348 689.596 741.7 689.43 742.098C689.265 742.491 689.182 742.905 689.182 743.341C689.182 743.919 689.317 744.458 689.587 744.96C689.861 745.462 690.235 745.867 690.709 746.175C691.187 746.482 691.729 746.636 692.335 746.636ZM704.73 748.199C703.66 748.199 702.749 747.908 701.996 747.325C701.243 746.738 700.668 745.888 700.27 744.776C699.873 743.658 699.674 742.309 699.674 740.727C699.674 739.155 699.873 737.813 700.27 736.7C700.673 735.583 701.25 734.731 702.003 734.143C702.761 733.552 703.67 733.256 704.73 733.256C705.791 733.256 706.698 733.552 707.451 734.143C708.208 734.731 708.786 735.583 709.184 736.7C709.586 737.813 709.787 739.155 709.787 740.727C709.787 742.309 709.588 743.658 709.191 744.776C708.793 745.888 708.218 746.738 707.465 747.325C706.712 747.908 705.801 748.199 704.73 748.199ZM704.73 746.636C705.791 746.636 706.615 746.125 707.202 745.102C707.789 744.08 708.083 742.621 708.083 740.727C708.083 739.468 707.948 738.395 707.678 737.51C707.413 736.625 707.029 735.95 706.527 735.486C706.03 735.022 705.431 734.79 704.73 734.79C703.679 734.79 702.858 735.308 702.266 736.345C701.674 737.377 701.378 738.838 701.378 740.727C701.378 741.987 701.511 743.057 701.776 743.938C702.041 744.818 702.422 745.488 702.919 745.947C703.421 746.407 704.025 746.636 704.73 746.636Z" fill="black"/>
<path d="M84 712L147.9 577H259.133L349.067 588.842L415.333 541.474L524.2 524.895L618.867 565.158L723 487" stroke="#90ABD3" stroke-width="3"/>
<path d="M86 716L118 588L236 566L332 600L478 520H598L668 566H728" stroke="#EABBBB" stroke-width="3"/>
</svg>
