<svg width="754" height="783" viewBox="0 0 754 783" fill="none" xmlns="http://www.w3.org/2000/svg">
<line x1="96" y1="46" x2="96" y2="695" stroke="black" stroke-width="2"/>
<line x1="95" y1="694" x2="744" y2="694" stroke="black" stroke-width="2"/>
<path d="M508.33 4.45455H510.091V14.8523C510.091 15.7803 509.92 16.5687 509.58 17.2173C509.239 17.866 508.758 18.3584 508.138 18.6946C507.518 19.0308 506.786 19.1989 505.943 19.1989C505.148 19.1989 504.44 19.0545 503.82 18.7656C503.199 18.4721 502.712 18.0554 502.357 17.5156C502.001 16.9759 501.824 16.3343 501.824 15.5909H503.557C503.557 16.0028 503.659 16.3627 503.862 16.6705C504.071 16.9735 504.355 17.2102 504.714 17.3807C505.074 17.5511 505.484 17.6364 505.943 17.6364C506.45 17.6364 506.881 17.5298 507.236 17.3168C507.591 17.1037 507.861 16.7912 508.045 16.3793C508.235 15.9626 508.33 15.4536 508.33 14.8523V4.45455ZM520.268 14.5398V8.09091H521.945V19H520.268V17.1534H520.155C519.899 17.7074 519.501 18.1785 518.962 18.5668C518.422 18.9503 517.74 19.142 516.916 19.142C516.234 19.142 515.628 18.9929 515.098 18.6946C514.568 18.3916 514.151 17.937 513.848 17.331C513.545 16.7202 513.393 15.9508 513.393 15.0227V8.09091H515.07V14.9091C515.07 15.7045 515.292 16.339 515.737 16.8125C516.187 17.286 516.76 17.5227 517.456 17.5227C517.873 17.5227 518.296 17.4162 518.727 17.2031C519.163 16.9901 519.527 16.6634 519.821 16.223C520.119 15.7827 520.268 15.2216 520.268 14.5398ZM526.691 12.4375V19H525.015V8.09091H526.634V9.79545H526.776C527.032 9.24148 527.42 8.7964 527.941 8.46023C528.462 8.11932 529.134 7.94886 529.958 7.94886C530.696 7.94886 531.343 8.10038 531.897 8.40341C532.451 8.7017 532.882 9.15625 533.189 9.76705C533.497 10.3731 533.651 11.1402 533.651 12.0682V19H531.975V12.1818C531.975 11.3248 531.752 10.6572 531.307 10.179C530.862 9.69602 530.251 9.45455 529.475 9.45455C528.94 9.45455 528.462 9.57055 528.04 9.80256C527.623 10.0346 527.294 10.3731 527.053 10.8182C526.811 11.2633 526.691 11.803 526.691 12.4375ZM541.288 19.2273C540.237 19.2273 539.33 18.9953 538.567 18.5312C537.81 18.0625 537.225 17.4091 536.813 16.571C536.406 15.7282 536.202 14.7481 536.202 13.6307C536.202 12.5133 536.406 11.5284 536.813 10.6761C537.225 9.81913 537.798 9.15152 538.532 8.6733C539.271 8.19034 540.132 7.94886 541.117 7.94886C541.685 7.94886 542.246 8.04356 542.8 8.23295C543.354 8.42235 543.859 8.73011 544.313 9.15625C544.768 9.57765 545.13 10.1364 545.4 10.8324C545.67 11.5284 545.805 12.3854 545.805 13.4034V14.1136H537.396V12.6648H544.1C544.1 12.0492 543.977 11.5 543.731 11.017C543.489 10.5341 543.144 10.1529 542.694 9.87358C542.249 9.59422 541.723 9.45455 541.117 9.45455C540.45 9.45455 539.872 9.62026 539.384 9.9517C538.901 10.2784 538.53 10.7045 538.269 11.2301C538.009 11.7557 537.879 12.3191 537.879 12.9205V13.8864C537.879 14.7102 538.021 15.4086 538.305 15.9815C538.594 16.5497 538.994 16.983 539.505 17.2812C540.016 17.5748 540.611 17.7216 541.288 17.7216C541.728 17.7216 542.126 17.66 542.481 17.5369C542.841 17.4091 543.151 17.2197 543.411 16.9688C543.672 16.7131 543.873 16.3958 544.015 16.017L545.634 16.4716C545.464 17.0208 545.177 17.5038 544.775 17.9205C544.372 18.3324 543.875 18.6544 543.283 18.8864C542.692 19.1136 542.026 19.2273 541.288 19.2273Z" fill="black"/>
<path d="M234.761 4.45455H236.864L241.807 16.5284H241.977L246.92 4.45455H249.023V19H247.375V7.94886H247.233L242.688 19H241.097L236.551 7.94886H236.409V19H234.761V4.45455ZM255.537 19.2557C254.846 19.2557 254.219 19.1255 253.655 18.8651C253.092 18.5999 252.644 18.2188 252.313 17.7216C251.981 17.2197 251.816 16.6136 251.816 15.9034C251.816 15.2784 251.939 14.7718 252.185 14.3835C252.431 13.9905 252.76 13.6828 253.172 13.4602C253.584 13.2377 254.039 13.072 254.536 12.9631C255.038 12.8494 255.542 12.7595 256.049 12.6932C256.712 12.608 257.249 12.544 257.661 12.5014C258.078 12.4541 258.381 12.3759 258.57 12.267C258.764 12.1581 258.861 11.9687 258.861 11.6989V11.642C258.861 10.9413 258.669 10.3968 258.286 10.0085C257.907 9.62027 257.332 9.42614 256.56 9.42614C255.76 9.42614 255.132 9.60133 254.678 9.9517C254.223 10.3021 253.904 10.6761 253.719 11.0739L252.128 10.5057C252.412 9.8428 252.791 9.3267 253.265 8.95739C253.743 8.58333 254.264 8.32292 254.827 8.17614C255.395 8.02462 255.954 7.94886 256.503 7.94886C256.854 7.94886 257.256 7.99148 257.711 8.0767C258.17 8.1572 258.613 8.32528 259.039 8.58097C259.47 8.83665 259.827 9.22254 260.111 9.73864C260.395 10.2547 260.537 10.946 260.537 11.8125V19H258.861V17.5227H258.776C258.662 17.7595 258.473 18.0128 258.208 18.2827C257.943 18.5526 257.59 18.7822 257.15 18.9716C256.709 19.161 256.172 19.2557 255.537 19.2557ZM255.793 17.75C256.456 17.75 257.015 17.6198 257.469 17.3594C257.928 17.099 258.274 16.7628 258.506 16.3509C258.743 15.9389 258.861 15.5057 258.861 15.0511V13.517C258.79 13.6023 258.634 13.6804 258.392 13.7514C258.156 13.8177 257.881 13.8769 257.569 13.929C257.261 13.9763 256.96 14.0189 256.667 14.0568C256.378 14.09 256.143 14.1184 255.963 14.142C255.528 14.1989 255.121 14.2912 254.742 14.419C254.368 14.5421 254.065 14.7292 253.833 14.9801C253.605 15.2263 253.492 15.5625 253.492 15.9886C253.492 16.571 253.707 17.0114 254.138 17.3097C254.574 17.6032 255.125 17.75 255.793 17.75ZM264.286 23.0909C264.001 23.0909 263.748 23.0672 263.526 23.0199C263.303 22.9773 263.149 22.9347 263.064 22.892L263.49 21.4148C263.897 21.5189 264.257 21.5568 264.57 21.5284C264.882 21.5 265.159 21.3603 265.401 21.1094C265.647 20.8632 265.872 20.4631 266.075 19.9091L266.388 19.0568L262.354 8.09091H264.172L267.183 16.7841H267.297L270.308 8.09091H272.126L267.496 20.5909C267.287 21.1544 267.029 21.6207 266.722 21.9901C266.414 22.3641 266.056 22.6411 265.649 22.821C265.247 23.0009 264.792 23.0909 264.286 23.0909Z" fill="black"/>
<line x1="97" y1="614.5" x2="744" y2="614.5" stroke="#EE2626"/>
<line x1="97" y1="534.5" x2="744" y2="534.5" stroke="#D6D6D6"/>
<line x1="97" y1="454.5" x2="744" y2="454.5" stroke="#D6D6D6"/>
<line x1="97" y1="374.5" x2="744" y2="374.5" stroke="#D6D6D6"/>
<line x1="97" y1="294.5" x2="744" y2="294.5" stroke="#D6D6D6"/>
<line x1="97" y1="214.5" x2="744" y2="214.5" stroke="#D6D6D6"/>
<line x1="97" y1="134.5" x2="744" y2="134.5" stroke="#D6D6D6"/>
<line x1="97" y1="54.5" x2="744" y2="54.5" stroke="#D6D6D6"/>
<path d="M38.6193 47.4545V62H36.858V49.3011H36.7727L33.2216 51.6591V49.8693L36.858 47.4545H38.6193ZM47.5469 62.1989C46.4768 62.1989 45.5653 61.9077 44.8125 61.3253C44.0597 60.7382 43.4844 59.8883 43.0866 58.7756C42.6889 57.6581 42.4901 56.3087 42.4901 54.7273C42.4901 53.1553 42.6889 51.813 43.0866 50.7003C43.4891 49.5829 44.0668 48.7306 44.8196 48.1435C45.5772 47.5516 46.4863 47.2557 47.5469 47.2557C48.6075 47.2557 49.5142 47.5516 50.267 48.1435C51.0246 48.7306 51.6023 49.5829 52 50.7003C52.4025 51.813 52.6037 53.1553 52.6037 54.7273C52.6037 56.3087 52.4048 57.6581 52.0071 58.7756C51.6094 59.8883 51.0341 60.7382 50.2812 61.3253C49.5284 61.9077 48.617 62.1989 47.5469 62.1989ZM47.5469 60.6364C48.6075 60.6364 49.4313 60.125 50.0185 59.1023C50.6056 58.0795 50.8991 56.6212 50.8991 54.7273C50.8991 53.4678 50.7642 52.3954 50.4943 51.5099C50.2292 50.6245 49.8456 49.9498 49.3438 49.4858C48.8466 49.0218 48.2476 48.7898 47.5469 48.7898C46.4957 48.7898 45.6742 49.3082 45.0824 50.3452C44.4905 51.3774 44.1946 52.8381 44.1946 54.7273C44.1946 55.9867 44.3272 57.0568 44.5923 57.9375C44.8575 58.8182 45.2386 59.4882 45.7358 59.9474C46.2377 60.4067 46.8414 60.6364 47.5469 60.6364ZM60.0469 62.1989C58.9768 62.1989 58.0653 61.9077 57.3125 61.3253C56.5597 60.7382 55.9844 59.8883 55.5866 58.7756C55.1889 57.6581 54.9901 56.3087 54.9901 54.7273C54.9901 53.1553 55.1889 51.813 55.5866 50.7003C55.9891 49.5829 56.5668 48.7306 57.3196 48.1435C58.0772 47.5516 58.9863 47.2557 60.0469 47.2557C61.1075 47.2557 62.0142 47.5516 62.767 48.1435C63.5246 48.7306 64.1023 49.5829 64.5 50.7003C64.9025 51.813 65.1037 53.1553 65.1037 54.7273C65.1037 56.3087 64.9048 57.6581 64.5071 58.7756C64.1094 59.8883 63.5341 60.7382 62.7812 61.3253C62.0284 61.9077 61.117 62.1989 60.0469 62.1989ZM60.0469 60.6364C61.1075 60.6364 61.9313 60.125 62.5185 59.1023C63.1056 58.0795 63.3991 56.6212 63.3991 54.7273C63.3991 53.4678 63.2642 52.3954 62.9943 51.5099C62.7292 50.6245 62.3456 49.9498 61.8438 49.4858C61.3466 49.0218 60.7476 48.7898 60.0469 48.7898C58.9957 48.7898 58.1742 49.3082 57.5824 50.3452C56.9905 51.3774 56.6946 52.8381 56.6946 54.7273C56.6946 55.9867 56.8272 57.0568 57.0923 57.9375C57.3575 58.8182 57.7386 59.4882 58.2358 59.9474C58.7377 60.4067 59.3414 60.6364 60.0469 60.6364Z" fill="black"/>
<path d="M39.6193 607.455V622H37.858V609.301H37.7727L34.2216 611.659V609.869L37.858 607.455H39.6193ZM48.5469 622.199C47.4768 622.199 46.5653 621.908 45.8125 621.325C45.0597 620.738 44.4844 619.888 44.0866 618.776C43.6889 617.658 43.4901 616.309 43.4901 614.727C43.4901 613.155 43.6889 611.813 44.0866 610.7C44.4891 609.583 45.0668 608.731 45.8196 608.143C46.5772 607.552 47.4863 607.256 48.5469 607.256C49.6075 607.256 50.5142 607.552 51.267 608.143C52.0246 608.731 52.6023 609.583 53 610.7C53.4025 611.813 53.6037 613.155 53.6037 614.727C53.6037 616.309 53.4048 617.658 53.0071 618.776C52.6094 619.888 52.0341 620.738 51.2812 621.325C50.5284 621.908 49.617 622.199 48.5469 622.199ZM48.5469 620.636C49.6075 620.636 50.4313 620.125 51.0185 619.102C51.6056 618.08 51.8991 616.621 51.8991 614.727C51.8991 613.468 51.7642 612.395 51.4943 611.51C51.2292 610.625 50.8456 609.95 50.3438 609.486C49.8466 609.022 49.2476 608.79 48.5469 608.79C47.4957 608.79 46.6742 609.308 46.0824 610.345C45.4905 611.377 45.1946 612.838 45.1946 614.727C45.1946 615.987 45.3272 617.057 45.5923 617.938C45.8575 618.818 46.2386 619.488 46.7358 619.947C47.2377 620.407 47.8414 620.636 48.5469 620.636Z" fill="black"/>
<path d="M163.506 720V718.722L168.307 713.466C168.87 712.85 169.334 712.315 169.699 711.861C170.063 711.402 170.333 710.971 170.509 710.568C170.688 710.161 170.778 709.735 170.778 709.29C170.778 708.778 170.655 708.336 170.409 707.962C170.168 707.588 169.836 707.299 169.415 707.095C168.993 706.892 168.52 706.79 167.994 706.79C167.436 706.79 166.948 706.906 166.531 707.138C166.119 707.365 165.8 707.685 165.572 708.097C165.35 708.509 165.239 708.991 165.239 709.545H163.562C163.562 708.693 163.759 707.945 164.152 707.301C164.545 706.657 165.08 706.155 165.757 705.795C166.439 705.436 167.204 705.256 168.051 705.256C168.903 705.256 169.659 705.436 170.317 705.795C170.975 706.155 171.491 706.641 171.865 707.251C172.239 707.862 172.426 708.542 172.426 709.29C172.426 709.825 172.329 710.348 172.135 710.859C171.946 711.366 171.614 711.932 171.141 712.557C170.672 713.177 170.021 713.935 169.188 714.83L165.92 718.324V718.438H172.682V720H163.506ZM176.07 720L182.575 707.131V707.017H175.075V705.455H184.393V707.102L177.916 720H176.07Z" fill="black"/>
<path d="M244.506 720V718.722L249.307 713.466C249.87 712.85 250.334 712.315 250.699 711.861C251.063 711.402 251.333 710.971 251.509 710.568C251.688 710.161 251.778 709.735 251.778 709.29C251.778 708.778 251.655 708.336 251.409 707.962C251.168 707.588 250.836 707.299 250.415 707.095C249.993 706.892 249.52 706.79 248.994 706.79C248.436 706.79 247.948 706.906 247.531 707.138C247.119 707.365 246.8 707.685 246.572 708.097C246.35 708.509 246.239 708.991 246.239 709.545H244.562C244.562 708.693 244.759 707.945 245.152 707.301C245.545 706.657 246.08 706.155 246.757 705.795C247.439 705.436 248.204 705.256 249.051 705.256C249.903 705.256 250.659 705.436 251.317 705.795C251.975 706.155 252.491 706.641 252.865 707.251C253.239 707.862 253.426 708.542 253.426 709.29C253.426 709.825 253.329 710.348 253.135 710.859C252.946 711.366 252.614 711.932 252.141 712.557C251.672 713.177 251.021 713.935 250.188 714.83L246.92 718.324V718.438H253.682V720H244.506ZM261.274 720.199C260.299 720.199 259.437 720.026 258.689 719.68C257.946 719.33 257.366 718.849 256.949 718.239C256.532 717.623 256.326 716.922 256.331 716.136C256.326 715.521 256.447 714.953 256.693 714.432C256.939 713.906 257.276 713.468 257.702 713.118C258.133 712.763 258.613 712.538 259.143 712.443V712.358C258.447 712.178 257.893 711.787 257.482 711.186C257.07 710.58 256.866 709.891 256.871 709.119C256.866 708.381 257.053 707.72 257.432 707.138C257.811 706.555 258.331 706.096 258.994 705.76C259.662 705.424 260.422 705.256 261.274 705.256C262.117 705.256 262.87 705.424 263.533 705.76C264.196 706.096 264.716 706.555 265.095 707.138C265.479 707.72 265.673 708.381 265.678 709.119C265.673 709.891 265.462 710.58 265.045 711.186C264.634 711.787 264.087 712.178 263.405 712.358V712.443C263.93 712.538 264.404 712.763 264.825 713.118C265.247 713.468 265.583 713.906 265.834 714.432C266.085 714.953 266.213 715.521 266.217 716.136C266.213 716.922 266 717.623 265.578 718.239C265.161 718.849 264.581 719.33 263.838 719.68C263.099 720.026 262.245 720.199 261.274 720.199ZM261.274 718.636C261.932 718.636 262.5 718.53 262.979 718.317C263.457 718.104 263.826 717.803 264.087 717.415C264.347 717.027 264.48 716.572 264.484 716.051C264.48 715.502 264.338 715.017 264.058 714.595C263.779 714.174 263.398 713.842 262.915 713.601C262.437 713.359 261.89 713.239 261.274 713.239C260.654 713.239 260.1 713.359 259.612 713.601C259.129 713.842 258.748 714.174 258.469 714.595C258.194 715.017 258.059 715.502 258.064 716.051C258.059 716.572 258.185 717.027 258.44 717.415C258.701 717.803 259.072 718.104 259.555 718.317C260.038 718.53 260.611 718.636 261.274 718.636ZM261.274 711.733C261.795 711.733 262.257 711.629 262.659 711.42C263.066 711.212 263.386 710.921 263.618 710.547C263.85 710.173 263.968 709.735 263.973 709.233C263.968 708.741 263.852 708.312 263.625 707.947C263.398 707.578 263.083 707.294 262.68 707.095C262.278 706.892 261.809 706.79 261.274 706.79C260.73 706.79 260.254 706.892 259.847 707.095C259.439 707.294 259.125 707.578 258.902 707.947C258.679 708.312 258.571 708.741 258.575 709.233C258.571 709.735 258.682 710.173 258.909 710.547C259.141 710.921 259.461 711.212 259.868 711.42C260.275 711.629 260.744 711.733 261.274 711.733Z" fill="black"/>
<path d="M330.42 720.199C329.483 720.199 328.647 720.038 327.913 719.716C327.184 719.394 326.604 718.946 326.173 718.374C325.747 717.796 325.515 717.126 325.477 716.364H327.267C327.305 716.832 327.466 717.237 327.75 717.578C328.034 717.914 328.406 718.175 328.865 718.359C329.324 718.544 329.833 718.636 330.392 718.636C331.017 718.636 331.571 718.527 332.054 718.31C332.537 718.092 332.916 717.789 333.19 717.401C333.465 717.012 333.602 716.562 333.602 716.051C333.602 715.516 333.47 715.045 333.205 714.638C332.939 714.226 332.551 713.904 332.04 713.672C331.528 713.44 330.903 713.324 330.165 713.324H329V711.761H330.165C330.742 711.761 331.249 711.657 331.685 711.449C332.125 711.241 332.468 710.947 332.714 710.568C332.965 710.189 333.091 709.744 333.091 709.233C333.091 708.741 332.982 708.312 332.764 707.947C332.546 707.583 332.239 707.299 331.841 707.095C331.448 706.892 330.984 706.79 330.449 706.79C329.947 706.79 329.473 706.882 329.028 707.067C328.588 707.247 328.228 707.509 327.949 707.855C327.67 708.196 327.518 708.608 327.494 709.091H325.79C325.818 708.329 326.048 707.661 326.479 707.088C326.91 706.51 327.473 706.061 328.169 705.739C328.87 705.417 329.639 705.256 330.477 705.256C331.377 705.256 332.149 705.438 332.793 705.803C333.437 706.162 333.931 706.638 334.277 707.23C334.623 707.822 334.795 708.461 334.795 709.148C334.795 709.967 334.58 710.665 334.149 711.243C333.723 711.821 333.143 712.221 332.409 712.443V712.557C333.328 712.708 334.045 713.099 334.561 713.729C335.077 714.354 335.335 715.128 335.335 716.051C335.335 716.842 335.12 717.552 334.689 718.182C334.263 718.807 333.68 719.299 332.942 719.659C332.203 720.019 331.363 720.199 330.42 720.199ZM342.984 720.199C341.914 720.199 341.003 719.908 340.25 719.325C339.497 718.738 338.922 717.888 338.524 716.776C338.126 715.658 337.928 714.309 337.928 712.727C337.928 711.155 338.126 709.813 338.524 708.7C338.927 707.583 339.504 706.731 340.257 706.143C341.015 705.552 341.924 705.256 342.984 705.256C344.045 705.256 344.952 705.552 345.705 706.143C346.462 706.731 347.04 707.583 347.438 708.7C347.84 709.813 348.041 711.155 348.041 712.727C348.041 714.309 347.842 715.658 347.445 716.776C347.047 717.888 346.472 718.738 345.719 719.325C344.966 719.908 344.054 720.199 342.984 720.199ZM342.984 718.636C344.045 718.636 344.869 718.125 345.456 717.102C346.043 716.08 346.337 714.621 346.337 712.727C346.337 711.468 346.202 710.395 345.932 709.51C345.667 708.625 345.283 707.95 344.781 707.486C344.284 707.022 343.685 706.79 342.984 706.79C341.933 706.79 341.112 707.308 340.52 708.345C339.928 709.377 339.632 710.838 339.632 712.727C339.632 713.987 339.765 715.057 340.03 715.938C340.295 716.818 340.676 717.488 341.173 717.947C341.675 718.407 342.279 718.636 342.984 718.636Z" fill="black"/>
<path d="M411.25 720.199C410.18 720.199 409.268 719.908 408.516 719.325C407.763 718.738 407.188 717.888 406.79 716.776C406.392 715.658 406.193 714.309 406.193 712.727C406.193 711.155 406.392 709.813 406.79 708.7C407.192 707.583 407.77 706.731 408.523 706.143C409.28 705.552 410.189 705.256 411.25 705.256C412.311 705.256 413.217 705.552 413.97 706.143C414.728 706.731 415.305 707.583 415.703 708.7C416.106 709.813 416.307 711.155 416.307 712.727C416.307 714.309 416.108 715.658 415.71 716.776C415.312 717.888 414.737 718.738 413.984 719.325C413.232 719.908 412.32 720.199 411.25 720.199ZM411.25 718.636C412.311 718.636 413.134 718.125 413.722 717.102C414.309 716.08 414.602 714.621 414.602 712.727C414.602 711.468 414.467 710.395 414.197 709.51C413.932 708.625 413.549 707.95 413.047 707.486C412.55 707.022 411.951 706.79 411.25 706.79C410.199 706.79 409.377 707.308 408.786 708.345C408.194 709.377 407.898 710.838 407.898 712.727C407.898 713.987 408.03 715.057 408.295 715.938C408.561 716.818 408.942 717.488 409.439 717.947C409.941 718.407 410.545 718.636 411.25 718.636ZM419.006 720V718.722L423.807 713.466C424.37 712.85 424.834 712.315 425.199 711.861C425.563 711.402 425.833 710.971 426.009 710.568C426.188 710.161 426.278 709.735 426.278 709.29C426.278 708.778 426.155 708.336 425.909 707.962C425.668 707.588 425.336 707.299 424.915 707.095C424.493 706.892 424.02 706.79 423.494 706.79C422.936 706.79 422.448 706.906 422.031 707.138C421.619 707.365 421.3 707.685 421.072 708.097C420.85 708.509 420.739 708.991 420.739 709.545H419.062C419.062 708.693 419.259 707.945 419.652 707.301C420.045 706.657 420.58 706.155 421.257 705.795C421.939 705.436 422.704 705.256 423.551 705.256C424.403 705.256 425.159 705.436 425.817 705.795C426.475 706.155 426.991 706.641 427.365 707.251C427.739 707.862 427.926 708.542 427.926 709.29C427.926 709.825 427.829 710.348 427.635 710.859C427.446 711.366 427.114 711.932 426.641 712.557C426.172 713.177 425.521 713.935 424.688 714.83L421.42 718.324V718.438H428.182V720H419.006Z" fill="black"/>
<path d="M492.25 720.199C491.18 720.199 490.268 719.908 489.516 719.325C488.763 718.738 488.188 717.888 487.79 716.776C487.392 715.658 487.193 714.309 487.193 712.727C487.193 711.155 487.392 709.813 487.79 708.7C488.192 707.583 488.77 706.731 489.523 706.143C490.28 705.552 491.189 705.256 492.25 705.256C493.311 705.256 494.217 705.552 494.97 706.143C495.728 706.731 496.305 707.583 496.703 708.7C497.106 709.813 497.307 711.155 497.307 712.727C497.307 714.309 497.108 715.658 496.71 716.776C496.312 717.888 495.737 718.738 494.984 719.325C494.232 719.908 493.32 720.199 492.25 720.199ZM492.25 718.636C493.311 718.636 494.134 718.125 494.722 717.102C495.309 716.08 495.602 714.621 495.602 712.727C495.602 711.468 495.467 710.395 495.197 709.51C494.932 708.625 494.549 707.95 494.047 707.486C493.55 707.022 492.951 706.79 492.25 706.79C491.199 706.79 490.377 707.308 489.786 708.345C489.194 709.377 488.898 710.838 488.898 712.727C488.898 713.987 489.03 715.057 489.295 715.938C489.561 716.818 489.942 717.488 490.439 717.947C490.941 718.407 491.545 718.636 492.25 718.636ZM499.665 717.017V715.568L506.057 705.455H507.108V707.699H506.398L501.568 715.341V715.455H510.176V717.017H499.665ZM506.511 720V716.577V715.902V705.455H508.188V720H506.511Z" fill="black"/>
<path d="M573.25 720.199C572.18 720.199 571.268 719.908 570.516 719.325C569.763 718.738 569.188 717.888 568.79 716.776C568.392 715.658 568.193 714.309 568.193 712.727C568.193 711.155 568.392 709.813 568.79 708.7C569.192 707.583 569.77 706.731 570.523 706.143C571.28 705.552 572.189 705.256 573.25 705.256C574.311 705.256 575.217 705.552 575.97 706.143C576.728 706.731 577.305 707.583 577.703 708.7C578.106 709.813 578.307 711.155 578.307 712.727C578.307 714.309 578.108 715.658 577.71 716.776C577.312 717.888 576.737 718.738 575.984 719.325C575.232 719.908 574.32 720.199 573.25 720.199ZM573.25 718.636C574.311 718.636 575.134 718.125 575.722 717.102C576.309 716.08 576.602 714.621 576.602 712.727C576.602 711.468 576.467 710.395 576.197 709.51C575.932 708.625 575.549 707.95 575.047 707.486C574.55 707.022 573.951 706.79 573.25 706.79C572.199 706.79 571.377 707.308 570.786 708.345C570.194 709.377 569.898 710.838 569.898 712.727C569.898 713.987 570.03 715.057 570.295 715.938C570.561 716.818 570.942 717.488 571.439 717.947C571.941 718.407 572.545 718.636 573.25 718.636ZM585.551 720.199C584.718 720.199 583.967 720.033 583.3 719.702C582.632 719.37 582.097 718.916 581.695 718.338C581.292 717.76 581.072 717.102 581.034 716.364H582.739C582.805 717.022 583.103 717.566 583.634 717.997C584.169 718.423 584.808 718.636 585.551 718.636C586.148 718.636 586.678 718.497 587.142 718.217C587.611 717.938 587.978 717.554 588.243 717.067C588.513 716.574 588.648 716.018 588.648 715.398C588.648 714.763 588.508 714.197 588.229 713.7C587.954 713.198 587.575 712.803 587.092 712.514C586.609 712.225 586.058 712.079 585.438 712.074C584.992 712.069 584.536 712.138 584.067 712.28C583.598 712.417 583.212 712.595 582.909 712.812L581.261 712.614L582.142 705.455H589.699V707.017H583.619L583.108 711.307H583.193C583.491 711.07 583.866 710.874 584.315 710.717C584.765 710.561 585.234 710.483 585.722 710.483C586.612 710.483 587.405 710.696 588.101 711.122C588.802 711.544 589.351 712.121 589.749 712.855C590.151 713.589 590.352 714.427 590.352 715.369C590.352 716.297 590.144 717.126 589.727 717.855C589.315 718.58 588.747 719.152 588.023 719.574C587.298 719.991 586.474 720.199 585.551 720.199Z" fill="black"/>
<path d="M654.25 720.199C653.18 720.199 652.268 719.908 651.516 719.325C650.763 718.738 650.188 717.888 649.79 716.776C649.392 715.658 649.193 714.309 649.193 712.727C649.193 711.155 649.392 709.813 649.79 708.7C650.192 707.583 650.77 706.731 651.523 706.143C652.28 705.552 653.189 705.256 654.25 705.256C655.311 705.256 656.217 705.552 656.97 706.143C657.728 706.731 658.305 707.583 658.703 708.7C659.106 709.813 659.307 711.155 659.307 712.727C659.307 714.309 659.108 715.658 658.71 716.776C658.312 717.888 657.737 718.738 656.984 719.325C656.232 719.908 655.32 720.199 654.25 720.199ZM654.25 718.636C655.311 718.636 656.134 718.125 656.722 717.102C657.309 716.08 657.602 714.621 657.602 712.727C657.602 711.468 657.467 710.395 657.197 709.51C656.932 708.625 656.549 707.95 656.047 707.486C655.55 707.022 654.951 706.79 654.25 706.79C653.199 706.79 652.377 707.308 651.786 708.345C651.194 709.377 650.898 710.838 650.898 712.727C650.898 713.987 651.03 715.057 651.295 715.938C651.561 716.818 651.942 717.488 652.439 717.947C652.941 718.407 653.545 718.636 654.25 718.636ZM662.07 720L668.575 707.131V707.017H661.075V705.455H670.393V707.102L663.916 720H662.07Z" fill="black"/>
<path d="M735.25 720.199C734.18 720.199 733.268 719.908 732.516 719.325C731.763 718.738 731.188 717.888 730.79 716.776C730.392 715.658 730.193 714.309 730.193 712.727C730.193 711.155 730.392 709.813 730.79 708.7C731.192 707.583 731.77 706.731 732.523 706.143C733.28 705.552 734.189 705.256 735.25 705.256C736.311 705.256 737.217 705.552 737.97 706.143C738.728 706.731 739.305 707.583 739.703 708.7C740.106 709.813 740.307 711.155 740.307 712.727C740.307 714.309 740.108 715.658 739.71 716.776C739.312 717.888 738.737 718.738 737.984 719.325C737.232 719.908 736.32 720.199 735.25 720.199ZM735.25 718.636C736.311 718.636 737.134 718.125 737.722 717.102C738.309 716.08 738.602 714.621 738.602 712.727C738.602 711.468 738.467 710.395 738.197 709.51C737.932 708.625 737.549 707.95 737.047 707.486C736.55 707.022 735.951 706.79 735.25 706.79C734.199 706.79 733.377 707.308 732.786 708.345C732.194 709.377 731.898 710.838 731.898 712.727C731.898 713.987 732.03 715.057 732.295 715.938C732.561 716.818 732.942 717.488 733.439 717.947C733.941 718.407 734.545 718.636 735.25 718.636ZM747.665 720.199C746.689 720.199 745.828 720.026 745.08 719.68C744.336 719.33 743.756 718.849 743.339 718.239C742.923 717.623 742.717 716.922 742.722 716.136C742.717 715.521 742.838 714.953 743.084 714.432C743.33 713.906 743.666 713.468 744.092 713.118C744.523 712.763 745.004 712.538 745.534 712.443V712.358C744.838 712.178 744.284 711.787 743.872 711.186C743.46 710.58 743.257 709.891 743.261 709.119C743.257 708.381 743.444 707.72 743.822 707.138C744.201 706.555 744.722 706.096 745.385 705.76C746.053 705.424 746.813 705.256 747.665 705.256C748.508 705.256 749.26 705.424 749.923 705.76C750.586 706.096 751.107 706.555 751.486 707.138C751.869 707.72 752.063 708.381 752.068 709.119C752.063 709.891 751.853 710.58 751.436 711.186C751.024 711.787 750.477 712.178 749.795 712.358V712.443C750.321 712.538 750.795 712.763 751.216 713.118C751.637 713.468 751.973 713.906 752.224 714.432C752.475 714.953 752.603 715.521 752.608 716.136C752.603 716.922 752.39 717.623 751.969 718.239C751.552 718.849 750.972 719.33 750.229 719.68C749.49 720.026 748.635 720.199 747.665 720.199ZM747.665 718.636C748.323 718.636 748.891 718.53 749.369 718.317C749.848 718.104 750.217 717.803 750.477 717.415C750.738 717.027 750.87 716.572 750.875 716.051C750.87 715.502 750.728 715.017 750.449 714.595C750.17 714.174 749.788 713.842 749.305 713.601C748.827 713.359 748.28 713.239 747.665 713.239C747.045 713.239 746.491 713.359 746.003 713.601C745.52 713.842 745.139 714.174 744.859 714.595C744.585 715.017 744.45 715.502 744.455 716.051C744.45 716.572 744.575 717.027 744.831 717.415C745.091 717.803 745.463 718.104 745.946 718.317C746.429 718.53 747.002 718.636 747.665 718.636ZM747.665 711.733C748.186 711.733 748.647 711.629 749.05 711.42C749.457 711.212 749.777 710.921 750.009 710.547C750.241 710.173 750.359 709.735 750.364 709.233C750.359 708.741 750.243 708.312 750.016 707.947C749.788 707.578 749.473 707.294 749.071 707.095C748.669 706.892 748.2 706.79 747.665 706.79C747.12 706.79 746.644 706.892 746.237 707.095C745.83 707.294 745.515 707.578 745.293 707.947C745.07 708.312 744.961 708.741 744.966 709.233C744.961 709.735 745.072 710.173 745.3 710.547C745.532 710.921 745.851 711.212 746.259 711.42C746.666 711.629 747.134 711.733 747.665 711.733Z" fill="black"/>
<path d="M436.25 778H431.761V763.455H436.449C437.86 763.455 439.067 763.746 440.071 764.328C441.075 764.906 441.844 765.737 442.379 766.821C442.914 767.901 443.182 769.193 443.182 770.699C443.182 772.214 442.912 773.518 442.372 774.612C441.832 775.701 441.046 776.539 440.014 777.126C438.982 777.709 437.727 778 436.25 778ZM433.523 776.438H436.136C437.339 776.438 438.336 776.205 439.126 775.741C439.917 775.277 440.507 774.617 440.895 773.76C441.283 772.903 441.477 771.883 441.477 770.699C441.477 769.525 441.286 768.514 440.902 767.666C440.518 766.814 439.946 766.161 439.183 765.706C438.421 765.247 437.472 765.017 436.335 765.017H433.523V776.438ZM449.119 778.256C448.428 778.256 447.801 778.125 447.237 777.865C446.674 777.6 446.226 777.219 445.895 776.722C445.563 776.22 445.398 775.614 445.398 774.903C445.398 774.278 445.521 773.772 445.767 773.384C446.013 772.991 446.342 772.683 446.754 772.46C447.166 772.238 447.621 772.072 448.118 771.963C448.62 771.849 449.124 771.759 449.631 771.693C450.294 771.608 450.831 771.544 451.243 771.501C451.66 771.454 451.963 771.376 452.152 771.267C452.346 771.158 452.443 770.969 452.443 770.699V770.642C452.443 769.941 452.251 769.397 451.868 769.009C451.489 768.62 450.914 768.426 450.142 768.426C449.342 768.426 448.714 768.601 448.26 768.952C447.805 769.302 447.486 769.676 447.301 770.074L445.71 769.506C445.994 768.843 446.373 768.327 446.847 767.957C447.325 767.583 447.846 767.323 448.409 767.176C448.977 767.025 449.536 766.949 450.085 766.949C450.436 766.949 450.838 766.991 451.293 767.077C451.752 767.157 452.195 767.325 452.621 767.581C453.052 767.837 453.409 768.223 453.693 768.739C453.977 769.255 454.119 769.946 454.119 770.812V778H452.443V776.523H452.358C452.244 776.759 452.055 777.013 451.79 777.283C451.525 777.553 451.172 777.782 450.732 777.972C450.291 778.161 449.754 778.256 449.119 778.256ZM449.375 776.75C450.038 776.75 450.597 776.62 451.051 776.359C451.51 776.099 451.856 775.763 452.088 775.351C452.325 774.939 452.443 774.506 452.443 774.051V772.517C452.372 772.602 452.216 772.68 451.974 772.751C451.738 772.818 451.463 772.877 451.151 772.929C450.843 772.976 450.542 773.019 450.249 773.057C449.96 773.09 449.725 773.118 449.545 773.142C449.11 773.199 448.703 773.291 448.324 773.419C447.95 773.542 447.647 773.729 447.415 773.98C447.188 774.226 447.074 774.562 447.074 774.989C447.074 775.571 447.289 776.011 447.72 776.31C448.156 776.603 448.707 776.75 449.375 776.75ZM461.923 767.091V768.511H456.27V767.091H461.923ZM457.917 764.477H459.593V774.875C459.593 775.348 459.662 775.704 459.799 775.94C459.941 776.172 460.121 776.329 460.339 776.409C460.562 776.485 460.796 776.523 461.042 776.523C461.227 776.523 461.378 776.513 461.497 776.494C461.615 776.471 461.71 776.452 461.781 776.438L462.122 777.943C462.008 777.986 461.85 778.028 461.646 778.071C461.442 778.118 461.184 778.142 460.872 778.142C460.398 778.142 459.934 778.04 459.48 777.837C459.03 777.633 458.656 777.323 458.358 776.906C458.064 776.49 457.917 775.964 457.917 775.33V764.477ZM468.901 778.227C467.85 778.227 466.943 777.995 466.181 777.531C465.423 777.062 464.838 776.409 464.426 775.571C464.019 774.728 463.816 773.748 463.816 772.631C463.816 771.513 464.019 770.528 464.426 769.676C464.838 768.819 465.411 768.152 466.145 767.673C466.884 767.19 467.746 766.949 468.73 766.949C469.299 766.949 469.86 767.044 470.414 767.233C470.968 767.422 471.472 767.73 471.926 768.156C472.381 768.578 472.743 769.136 473.013 769.832C473.283 770.528 473.418 771.385 473.418 772.403V773.114H465.009V771.665H471.713C471.713 771.049 471.59 770.5 471.344 770.017C471.103 769.534 470.757 769.153 470.307 768.874C469.862 768.594 469.337 768.455 468.73 768.455C468.063 768.455 467.485 768.62 466.998 768.952C466.515 769.278 466.143 769.705 465.882 770.23C465.622 770.756 465.492 771.319 465.492 771.92V772.886C465.492 773.71 465.634 774.409 465.918 774.982C466.207 775.55 466.607 775.983 467.118 776.281C467.63 776.575 468.224 776.722 468.901 776.722C469.341 776.722 469.739 776.66 470.094 776.537C470.454 776.409 470.764 776.22 471.025 775.969C471.285 775.713 471.486 775.396 471.628 775.017L473.248 775.472C473.077 776.021 472.791 776.504 472.388 776.92C471.986 777.332 471.489 777.654 470.897 777.886C470.305 778.114 469.64 778.227 468.901 778.227Z" fill="black"/>
<path d="M19 430.239L4.45454 430.239L4.45454 425.324C4.45454 424.183 4.66051 423.25 5.07244 422.526C5.47964 421.796 6.03125 421.257 6.72727 420.906C7.42329 420.556 8.19981 420.381 9.05682 420.381C9.91383 420.381 10.6927 420.556 11.3935 420.906C12.0942 421.252 12.6529 421.787 13.0696 422.511C13.4815 423.236 13.6875 424.164 13.6875 425.295L13.6875 428.818L12.125 428.818L12.125 425.352C12.125 424.571 11.9901 423.944 11.7202 423.47C11.4503 422.997 11.0857 422.653 10.6264 422.44C10.1624 422.223 9.6392 422.114 9.05682 422.114C8.47443 422.114 7.9536 422.223 7.49432 422.44C7.03504 422.653 6.67519 422.999 6.41477 423.477C6.14962 423.955 6.01704 424.59 6.01704 425.381L6.01704 428.477L19 428.477L19 430.239ZM19.2273 413.314C19.2273 414.365 18.9953 415.272 18.5312 416.034C18.0625 416.792 17.4091 417.376 16.571 417.788C15.7282 418.196 14.7481 418.399 13.6307 418.399C12.5133 418.399 11.5284 418.196 10.6761 417.788C9.81913 417.376 9.15151 416.804 8.67329 416.07C8.19034 415.331 7.94886 414.469 7.94886 413.484C7.94886 412.916 8.04356 412.355 8.23295 411.801C8.42235 411.247 8.73011 410.743 9.15625 410.288C9.57765 409.834 10.1364 409.472 10.8324 409.202C11.5284 408.932 12.3854 408.797 13.4034 408.797L14.1136 408.797L14.1136 417.206L12.6648 417.206L12.6648 410.501C12.0492 410.501 11.5 410.625 11.017 410.871C10.5341 411.112 10.1529 411.458 9.87358 411.908C9.59422 412.353 9.45454 412.878 9.45454 413.484C9.45454 414.152 9.62026 414.73 9.9517 415.217C10.2784 415.7 10.7045 416.072 11.2301 416.332C11.7557 416.593 12.3191 416.723 12.9205 416.723L13.8864 416.723C14.7102 416.723 15.4086 416.581 15.9815 416.297C16.5497 416.008 16.983 415.608 17.2812 415.097C17.5748 414.585 17.7216 413.991 17.7216 413.314C17.7216 412.874 17.66 412.476 17.5369 412.121C17.4091 411.761 17.2197 411.451 16.9687 411.19C16.7131 410.93 16.3958 410.729 16.017 410.587L16.4716 408.967C17.0208 409.138 17.5038 409.424 17.9205 409.827C18.3324 410.229 18.6544 410.726 18.8864 411.318C19.1136 411.91 19.2273 412.575 19.2273 413.314ZM19 406.247L8.09091 406.247L8.09091 404.628L9.73864 404.628L9.73864 404.514C9.19886 404.315 8.76089 403.955 8.42471 403.435C8.08854 402.914 7.92045 402.327 7.92045 401.673C7.92045 401.55 7.92282 401.396 7.92755 401.212C7.93229 401.027 7.93939 400.887 7.94886 400.793L9.65341 400.793C9.6392 400.849 9.6179 400.98 9.58949 401.183C9.55634 401.382 9.53977 401.593 9.53977 401.815C9.53977 402.346 9.65104 402.819 9.87358 403.236C10.0914 403.648 10.3944 403.974 10.7827 404.216C11.1662 404.453 11.6042 404.571 12.0966 404.571L19 404.571L19 406.247ZM8.09091 393.264L9.51136 393.264L9.51136 399.145L8.09091 399.145L8.09091 393.264ZM19 397.384L6.58523 397.384C5.96023 397.384 5.43939 397.237 5.02272 396.943C4.60606 396.65 4.29356 396.268 4.08522 395.8C3.87689 395.331 3.77272 394.836 3.77272 394.315C3.77272 393.903 3.80587 393.567 3.87216 393.307C3.93844 393.046 4 392.852 4.05682 392.724L5.50568 393.207C5.47727 393.293 5.44176 393.411 5.39915 393.562C5.35653 393.709 5.33522 393.903 5.33522 394.145C5.33522 394.699 5.4749 395.099 5.75426 395.345C6.03362 395.587 6.44318 395.707 6.98295 395.707L19 395.707L19 397.384ZM19.2273 386.933C19.2273 387.917 18.9929 388.781 18.5241 389.525C18.0554 390.263 17.3996 390.841 16.5568 391.258C15.714 391.67 14.7292 391.876 13.6023 391.876C12.4659 391.876 11.474 391.67 10.6264 391.258C9.77888 390.841 9.12074 390.263 8.65199 389.525C8.18324 388.781 7.94886 387.917 7.94886 386.933C7.94886 385.948 8.18324 385.086 8.65199 384.347C9.12074 383.604 9.77888 383.026 10.6264 382.614C11.474 382.198 12.4659 381.989 13.6023 381.989C14.7292 381.989 15.714 382.198 16.5568 382.614C17.3996 383.026 18.0554 383.604 18.5241 384.347C18.9929 385.086 19.2273 385.948 19.2273 386.933ZM17.7216 386.933C17.7216 386.184 17.5298 385.569 17.1463 385.086C16.7628 384.603 16.2585 384.246 15.6335 384.013C15.0085 383.781 14.3314 383.665 13.6023 383.665C12.8731 383.665 12.1937 383.781 11.5639 384.013C10.9342 384.246 10.4252 384.603 10.0369 385.086C9.64867 385.569 9.45454 386.184 9.45454 386.933C9.45454 387.681 9.64867 388.296 10.0369 388.779C10.4252 389.262 10.9342 389.62 11.5639 389.852C12.1937 390.084 12.8731 390.2 13.6023 390.2C14.3314 390.2 15.0085 390.084 15.6335 389.852C16.2585 389.62 16.7628 389.262 17.1463 388.779C17.5298 388.296 17.7216 387.681 17.7216 386.933ZM19 379.431L8.09091 379.431L8.09091 377.811L9.73863 377.811L9.73863 377.698C9.19886 377.499 8.76089 377.139 8.42471 376.618C8.08854 376.097 7.92045 375.51 7.92045 374.857C7.92045 374.734 7.92282 374.58 7.92755 374.395C7.93229 374.211 7.93939 374.071 7.94886 373.976L9.65341 373.976C9.6392 374.033 9.61789 374.163 9.58949 374.367C9.55634 374.566 9.53977 374.776 9.53977 374.999C9.53977 375.529 9.65104 376.003 9.87358 376.419C10.0914 376.831 10.3944 377.158 10.7827 377.4C11.1662 377.636 11.6042 377.755 12.0966 377.755L19 377.755L19 379.431ZM19 371.989L8.09091 371.989L8.09091 370.37L9.79545 370.37L9.79545 370.228C9.21307 370.001 8.76089 369.634 8.43892 369.127C8.11221 368.621 7.94886 368.012 7.94886 367.302C7.94886 366.582 8.11221 365.983 8.43892 365.505C8.76089 365.022 9.21307 364.646 9.79545 364.376L9.79545 364.262C9.232 363.983 8.78456 363.564 8.45312 363.005C8.11695 362.446 7.94886 361.776 7.94886 360.995C7.94886 360.02 8.25426 359.222 8.86505 358.602C9.47111 357.981 10.4157 357.671 11.6989 357.671L19 357.671L19 359.347L11.6989 359.347C10.8939 359.347 10.3187 359.567 9.97301 360.008C9.62736 360.448 9.45454 360.967 9.45454 361.563C9.45454 362.33 9.68655 362.924 10.1506 363.346C10.6098 363.767 11.1922 363.978 11.8977 363.978L19 363.978L19 365.683L11.5284 365.683C10.9081 365.683 10.4086 365.884 10.0298 366.286C9.6463 366.689 9.45454 367.207 9.45454 367.842C9.45454 368.277 9.57055 368.684 9.80255 369.063C10.0346 369.437 10.3565 369.74 10.7685 369.972C11.1757 370.2 11.6468 370.313 12.1818 370.313L19 370.313L19 371.989ZM19.2557 351.396C19.2557 352.088 19.1255 352.715 18.8651 353.278C18.5999 353.842 18.2187 354.289 17.7216 354.621C17.2197 354.952 16.6136 355.118 15.9034 355.118C15.2784 355.118 14.7718 354.995 14.3835 354.749C13.9905 354.502 13.6828 354.173 13.4602 353.761C13.2377 353.349 13.072 352.895 12.9631 352.398C12.8494 351.896 12.7595 351.392 12.6932 350.885C12.608 350.222 12.544 349.685 12.5014 349.273C12.4541 348.856 12.3759 348.553 12.267 348.364C12.1581 348.17 11.9687 348.072 11.6989 348.072L11.642 348.072C10.9413 348.072 10.3968 348.264 10.0085 348.648C9.62026 349.027 9.42613 349.602 9.42613 350.374C9.42613 351.174 9.60132 351.801 9.9517 352.256C10.3021 352.71 10.6761 353.03 11.0739 353.214L10.5057 354.805C9.8428 354.521 9.3267 354.143 8.95738 353.669C8.58333 353.191 8.32291 352.67 8.17613 352.107C8.02462 351.538 7.94886 350.98 7.94886 350.43C7.94886 350.08 7.99147 349.678 8.0767 349.223C8.15719 348.764 8.32528 348.321 8.58096 347.895C8.83664 347.464 9.22253 347.107 9.73863 346.822C10.2547 346.538 10.946 346.396 11.8125 346.396L19 346.396L19 348.072L17.5227 348.072L17.5227 348.158C17.7595 348.271 18.0128 348.461 18.2827 348.726C18.5526 348.991 18.7822 349.344 18.9716 349.784C19.161 350.224 19.2557 350.762 19.2557 351.396ZM17.75 351.141C17.75 350.478 17.6198 349.919 17.3594 349.464C17.099 349.005 16.7628 348.66 16.3508 348.428C15.9389 348.191 15.5057 348.072 15.0511 348.072L13.517 348.072C13.6023 348.143 13.6804 348.3 13.7514 348.541C13.8177 348.778 13.8769 349.053 13.929 349.365C13.9763 349.673 14.0189 349.973 14.0568 350.267C14.09 350.556 14.1184 350.79 14.142 350.97C14.1989 351.406 14.2912 351.813 14.419 352.192C14.5421 352.566 14.7292 352.869 14.9801 353.101C15.2263 353.328 15.5625 353.442 15.9886 353.442C16.571 353.442 17.0114 353.226 17.3097 352.795C17.6032 352.36 17.75 351.808 17.75 351.141ZM12.4375 341.661L19 341.661L19 343.337L8.0909 343.337L8.0909 341.718L9.79545 341.718L9.79545 341.576C9.24147 341.32 8.7964 340.932 8.46022 340.411C8.11931 339.89 7.94886 339.218 7.94886 338.394C7.94886 337.655 8.10037 337.009 8.4034 336.455C8.7017 335.901 9.15625 335.47 9.76704 335.162C10.3731 334.855 11.1401 334.701 12.0682 334.701L19 334.701L19 336.377L12.1818 336.377C11.3248 336.377 10.6572 336.599 10.179 337.044C9.69602 337.489 9.45454 338.1 9.45454 338.877C9.45454 339.412 9.57054 339.89 9.80255 340.311C10.0346 340.728 10.3731 341.057 10.8182 341.299C11.2633 341.54 11.803 341.661 12.4375 341.661ZM19.2273 327.206C19.2273 328.229 18.9858 329.109 18.5028 329.848C18.0199 330.587 17.3546 331.155 16.5071 331.553C15.6596 331.95 14.6913 332.149 13.6023 332.149C12.4943 332.149 11.5166 331.946 10.669 331.538C9.81676 331.126 9.15151 330.554 8.67329 329.82C8.19034 329.081 7.94886 328.219 7.94886 327.234C7.94886 326.467 8.0909 325.776 8.375 325.161C8.65909 324.545 9.05681 324.041 9.56818 323.648C10.0795 323.255 10.6761 323.011 11.3579 322.916L11.3579 324.592C10.8608 324.72 10.4204 325.004 10.0369 325.445C9.64867 325.88 9.45454 326.467 9.45454 327.206C9.45454 327.859 9.625 328.432 9.9659 328.925C10.3021 329.412 10.7779 329.794 11.3935 330.068C12.0043 330.338 12.7216 330.473 13.5454 330.473C14.3883 330.473 15.1222 330.34 15.7472 330.075C16.3722 329.805 16.8575 329.427 17.2031 328.939C17.5488 328.446 17.7216 327.869 17.7216 327.206C17.7216 326.77 17.6458 326.375 17.4943 326.02C17.3428 325.665 17.125 325.364 16.8409 325.118C16.5568 324.872 16.2159 324.696 15.8182 324.592L15.8182 322.916C16.4621 323.011 17.0421 323.245 17.5582 323.619C18.0696 323.989 18.4768 324.479 18.7798 325.089C19.0781 325.696 19.2273 326.401 19.2273 327.206ZM19.2273 315.892C19.2273 316.943 18.9953 317.85 18.5312 318.612C18.0625 319.37 17.4091 319.955 16.571 320.366C15.7282 320.774 14.7481 320.977 13.6307 320.977C12.5133 320.977 11.5284 320.774 10.6761 320.366C9.81912 319.955 9.15151 319.382 8.67329 318.648C8.19034 317.909 7.94886 317.047 7.94886 316.062C7.94886 315.494 8.04356 314.933 8.23295 314.379C8.42234 313.825 8.73011 313.321 9.15624 312.866C9.57765 312.412 10.1364 312.05 10.8324 311.78C11.5284 311.51 12.3854 311.375 13.4034 311.375L14.1136 311.375L14.1136 319.784L12.6648 319.784L12.6648 313.08C12.0492 313.08 11.5 313.203 11.017 313.449C10.5341 313.69 10.1529 314.036 9.87357 314.486C9.59422 314.931 9.45454 315.456 9.45454 316.062C9.45454 316.73 9.62026 317.308 9.9517 317.795C10.2784 318.278 10.7045 318.65 11.2301 318.911C11.7557 319.171 12.3191 319.301 12.9204 319.301L13.8864 319.301C14.7102 319.301 15.4086 319.159 15.9815 318.875C16.5497 318.586 16.9829 318.186 17.2812 317.675C17.5748 317.163 17.7216 316.569 17.7216 315.892C17.7216 315.452 17.66 315.054 17.5369 314.699C17.4091 314.339 17.2197 314.029 16.9687 313.768C16.7131 313.508 16.3958 313.307 16.017 313.165L16.4716 311.545C17.0208 311.716 17.5038 312.002 17.9204 312.405C18.3324 312.807 18.6544 313.304 18.8864 313.896C19.1136 314.488 19.2273 315.153 19.2273 315.892Z" fill="black"/>
<path d="M95 586L205 680L249 426L305 446L377 184L479 300L663 224" stroke="#90ABD3" stroke-width="3"/>
</svg>
