<svg width="724" height="835" viewBox="0 0 724 835" fill="none" xmlns="http://www.w3.org/2000/svg">
<rect x="176" y="771" width="64" height="64" fill="#EABBBB"/>
<rect x="424" y="771" width="64" height="64" fill="#90ABD3"/>
<path d="M264.761 810V795.455H269.676C270.813 795.455 271.745 795.649 272.474 796.037C273.204 796.42 273.743 796.948 274.094 797.621C274.444 798.293 274.619 799.058 274.619 799.915C274.619 800.772 274.444 801.532 274.094 802.195C273.743 802.857 273.206 803.378 272.482 803.757C271.757 804.131 270.831 804.318 269.705 804.318H265.727V802.727H269.648C270.424 802.727 271.049 802.614 271.523 802.386C272.001 802.159 272.347 801.837 272.56 801.42C272.777 800.999 272.886 800.497 272.886 799.915C272.886 799.332 272.777 798.823 272.56 798.388C272.342 797.952 271.994 797.616 271.516 797.379C271.037 797.138 270.405 797.017 269.619 797.017H266.523V810H264.761ZM271.608 803.466L275.188 810H273.142L269.619 803.466H271.608ZM277.327 810V799.091H279.003V810H277.327ZM278.179 797.273C277.853 797.273 277.571 797.161 277.334 796.939C277.102 796.716 276.986 796.449 276.986 796.136C276.986 795.824 277.102 795.556 277.334 795.334C277.571 795.111 277.853 795 278.179 795C278.506 795 278.785 795.111 279.017 795.334C279.254 795.556 279.373 795.824 279.373 796.136C279.373 796.449 279.254 796.716 279.017 796.939C278.785 797.161 278.506 797.273 278.179 797.273ZM286.477 814.318C285.667 814.318 284.971 814.214 284.388 814.006C283.806 813.802 283.321 813.532 282.933 813.196C282.549 812.865 282.244 812.509 282.016 812.131L283.352 811.193C283.503 811.392 283.695 811.619 283.927 811.875C284.159 812.135 284.476 812.36 284.879 812.55C285.286 812.744 285.818 812.841 286.477 812.841C287.357 812.841 288.084 812.628 288.657 812.202C289.23 811.776 289.516 811.108 289.516 810.199V807.983H289.374C289.251 808.182 289.076 808.428 288.849 808.722C288.626 809.01 288.304 809.268 287.883 809.496C287.466 809.718 286.903 809.83 286.192 809.83C285.312 809.83 284.521 809.621 283.82 809.205C283.124 808.788 282.573 808.182 282.165 807.386C281.763 806.591 281.562 805.625 281.562 804.489C281.562 803.371 281.758 802.398 282.151 801.57C282.544 800.736 283.091 800.092 283.792 799.638C284.493 799.178 285.302 798.949 286.221 798.949C286.931 798.949 287.495 799.067 287.911 799.304C288.333 799.536 288.655 799.801 288.877 800.099C289.104 800.393 289.28 800.634 289.403 800.824H289.573V799.091H291.192V810.312C291.192 811.25 290.979 812.012 290.553 812.599C290.132 813.191 289.564 813.624 288.849 813.899C288.138 814.178 287.348 814.318 286.477 814.318ZM286.42 808.324C287.092 808.324 287.66 808.17 288.124 807.862C288.588 807.554 288.941 807.112 289.183 806.534C289.424 805.956 289.545 805.265 289.545 804.46C289.545 803.674 289.426 802.981 289.19 802.379C288.953 801.778 288.603 801.307 288.138 800.966C287.674 800.625 287.102 800.455 286.42 800.455C285.71 800.455 285.118 800.634 284.644 800.994C284.175 801.354 283.823 801.837 283.586 802.443C283.354 803.049 283.238 803.722 283.238 804.46C283.238 805.218 283.356 805.888 283.593 806.47C283.835 807.048 284.19 807.502 284.658 807.834C285.132 808.16 285.719 808.324 286.42 808.324ZM295.937 803.437V810H294.261V795.455H295.937V800.795H296.079C296.335 800.232 296.718 799.785 297.229 799.453C297.746 799.117 298.432 798.949 299.289 798.949C300.032 798.949 300.683 799.098 301.242 799.396C301.801 799.69 302.234 800.142 302.542 800.753C302.854 801.359 303.011 802.131 303.011 803.068V810H301.335V803.182C301.335 802.315 301.11 801.645 300.66 801.172C300.215 800.694 299.597 800.455 298.806 800.455C298.257 800.455 297.764 800.571 297.329 800.803C296.898 801.035 296.557 801.373 296.306 801.818C296.06 802.263 295.937 802.803 295.937 803.437ZM310.821 799.091V800.511H305.168V799.091H310.821ZM306.816 796.477H308.492V806.875C308.492 807.348 308.56 807.704 308.698 807.94C308.84 808.172 309.02 808.329 309.238 808.409C309.46 808.485 309.694 808.523 309.941 808.523C310.125 808.523 310.277 808.513 310.395 808.494C310.514 808.471 310.608 808.452 310.679 808.437L311.02 809.943C310.907 809.986 310.748 810.028 310.544 810.071C310.341 810.118 310.083 810.142 309.77 810.142C309.297 810.142 308.833 810.04 308.378 809.837C307.928 809.633 307.554 809.323 307.256 808.906C306.962 808.49 306.816 807.964 306.816 807.33V796.477Z" fill="black"/>
<path d="M512.761 810V795.455H514.523V808.437H521.284V810H512.761ZM528.358 810.227C527.307 810.227 526.4 809.995 525.638 809.531C524.88 809.062 524.295 808.409 523.884 807.571C523.476 806.728 523.273 805.748 523.273 804.631C523.273 803.513 523.476 802.528 523.884 801.676C524.295 800.819 524.868 800.151 525.602 799.673C526.341 799.19 527.203 798.949 528.188 798.949C528.756 798.949 529.317 799.044 529.871 799.233C530.425 799.422 530.929 799.73 531.384 800.156C531.838 800.578 532.2 801.136 532.47 801.832C532.74 802.528 532.875 803.385 532.875 804.403V805.114H524.466V803.665H531.17C531.17 803.049 531.047 802.5 530.801 802.017C530.56 801.534 530.214 801.153 529.764 800.874C529.319 800.594 528.794 800.455 528.188 800.455C527.52 800.455 526.942 800.62 526.455 800.952C525.972 801.278 525.6 801.705 525.339 802.23C525.079 802.756 524.949 803.319 524.949 803.92V804.886C524.949 805.71 525.091 806.409 525.375 806.982C525.664 807.55 526.064 807.983 526.575 808.281C527.087 808.575 527.681 808.722 528.358 808.722C528.798 808.722 529.196 808.66 529.551 808.537C529.911 808.409 530.221 808.22 530.482 807.969C530.742 807.713 530.943 807.396 531.085 807.017L532.705 807.472C532.534 808.021 532.248 808.504 531.845 808.92C531.443 809.332 530.946 809.654 530.354 809.886C529.762 810.114 529.097 810.227 528.358 810.227ZM540.283 799.091V800.511H534.402V799.091H540.283ZM536.163 810V797.585C536.163 796.96 536.31 796.439 536.604 796.023C536.897 795.606 537.278 795.294 537.747 795.085C538.216 794.877 538.711 794.773 539.232 794.773C539.643 794.773 539.98 794.806 540.24 794.872C540.5 794.938 540.695 795 540.822 795.057L540.339 796.506C540.254 796.477 540.136 796.442 539.984 796.399C539.838 796.357 539.643 796.335 539.402 796.335C538.848 796.335 538.448 796.475 538.202 796.754C537.96 797.034 537.839 797.443 537.839 797.983V810H536.163ZM547.376 799.091V800.511H541.723V799.091H547.376ZM543.37 796.477H545.047V806.875C545.047 807.348 545.115 807.704 545.252 807.94C545.395 808.172 545.574 808.329 545.792 808.409C546.015 808.485 546.249 808.523 546.495 808.523C546.68 808.523 546.832 808.513 546.95 808.494C547.068 808.471 547.163 808.452 547.234 808.437L547.575 809.943C547.461 809.986 547.303 810.028 547.099 810.071C546.895 810.118 546.637 810.142 546.325 810.142C545.851 810.142 545.387 810.04 544.933 809.837C544.483 809.633 544.109 809.323 543.811 808.906C543.517 808.49 543.37 807.964 543.37 807.33V796.477Z" fill="black"/>
<path d="M362 0C409.539 5.66891e-07 456.612 9.36341 500.531 27.5556C544.451 45.7478 584.358 72.4126 617.973 106.027C651.587 139.642 678.252 179.549 696.444 223.469C714.637 267.389 724 314.462 724 362C724 409.539 714.637 456.612 696.444 500.531C678.252 544.451 651.587 584.358 617.973 617.973C584.358 651.588 544.451 678.252 500.531 696.444C456.611 714.637 409.538 724 362 724L362 590.009C391.943 590.009 421.592 584.111 449.255 572.653C476.918 561.194 502.054 544.399 523.227 523.227C544.399 502.054 561.194 476.919 572.653 449.255C584.111 421.592 590.009 391.943 590.009 362C590.009 332.057 584.111 302.408 572.653 274.745C561.194 247.082 544.399 221.946 523.227 200.773C502.054 179.601 476.919 162.806 449.255 151.347C421.592 139.889 391.943 133.991 362 133.991V0Z" fill="#EABBBB"/>
<path d="M362 148C390.103 148 417.931 153.535 443.894 164.29C469.858 175.044 493.449 190.807 513.321 210.679C533.193 230.551 548.956 254.142 559.71 280.106C570.465 306.069 576 333.897 576 362H496.79C496.79 344.299 493.303 326.772 486.529 310.418C479.756 294.065 469.827 279.206 457.311 266.689C444.794 254.173 429.935 244.244 413.582 237.471C397.228 230.697 379.701 227.21 362 227.21V148Z" fill="#EABBBB"/>
<path d="M362 148C319.675 148 278.3 160.551 243.108 184.066C207.916 207.58 180.487 241.002 164.29 280.106C148.093 319.209 143.855 362.237 152.112 403.749C160.369 445.261 180.751 483.392 210.679 513.321L266.689 457.311C247.839 438.46 235.001 414.443 229.8 388.296C224.599 362.15 227.269 335.048 237.471 310.418C247.672 285.789 264.949 264.737 287.115 249.926C309.281 235.116 335.341 227.21 362 227.21V148Z" fill="#90ABD3"/>
<path d="M362 1.46941e-05C265.992 1.88907e-05 173.916 38.1392 106.027 106.027C38.1392 173.916 1.77458e-05 265.992 1.46941e-05 362C1.16423e-05 458.008 38.1392 550.084 106.027 617.973C173.916 685.861 265.992 724 362 724L362 590C301.531 590 243.538 565.979 200.78 523.22C158.021 480.462 134 422.469 134 362C134 301.531 158.021 243.538 200.78 200.78C243.538 158.021 301.531 134 362 134L362 1.46941e-05Z" fill="#90ABD3"/>
<path d="M465.354 238.209C464.479 238.209 463.691 238.035 462.99 237.687C462.289 237.339 461.727 236.862 461.304 236.255C460.882 235.648 460.651 234.957 460.611 234.182H462.401C462.47 234.873 462.783 235.445 463.34 235.897C463.902 236.344 464.573 236.568 465.354 236.568C465.98 236.568 466.537 236.422 467.024 236.128C467.516 235.835 467.902 235.432 468.18 234.92C468.463 234.403 468.605 233.819 468.605 233.168C468.605 232.501 468.458 231.907 468.165 231.385C467.877 230.858 467.479 230.443 466.972 230.14C466.465 229.837 465.886 229.683 465.234 229.678C464.767 229.673 464.287 229.745 463.795 229.894C463.303 230.038 462.898 230.224 462.58 230.453L460.849 230.244L461.774 222.727H469.709V224.368H463.325L462.788 228.872H462.878C463.191 228.624 463.584 228.417 464.056 228.253C464.528 228.089 465.021 228.007 465.533 228.007C466.467 228.007 467.3 228.231 468.031 228.678C468.767 229.121 469.343 229.727 469.761 230.498C470.184 231.268 470.395 232.148 470.395 233.138C470.395 234.112 470.176 234.982 469.739 235.748C469.306 236.509 468.71 237.11 467.949 237.553C467.188 237.99 466.323 238.209 465.354 238.209ZM478.339 238.209C477.215 238.209 476.258 237.903 475.468 237.292C474.677 236.675 474.073 235.783 473.656 234.614C473.238 233.441 473.029 232.024 473.029 230.364C473.029 228.713 473.238 227.304 473.656 226.135C474.078 224.962 474.685 224.067 475.475 223.451C476.271 222.829 477.225 222.518 478.339 222.518C479.453 222.518 480.405 222.829 481.195 223.451C481.991 224.067 482.597 224.962 483.015 226.135C483.437 227.304 483.649 228.713 483.649 230.364C483.649 232.024 483.44 233.441 483.022 234.614C482.604 235.783 482 236.675 481.21 237.292C480.419 237.903 479.462 238.209 478.339 238.209ZM478.339 236.568C479.453 236.568 480.318 236.031 480.934 234.957C481.551 233.884 481.859 232.352 481.859 230.364C481.859 229.041 481.717 227.915 481.434 226.985C481.155 226.056 480.753 225.347 480.226 224.86C479.704 224.373 479.075 224.129 478.339 224.129C477.235 224.129 476.373 224.674 475.751 225.762C475.13 226.846 474.819 228.38 474.819 230.364C474.819 231.686 474.958 232.81 475.237 233.734C475.515 234.659 475.915 235.363 476.437 235.845C476.964 236.327 477.598 236.568 478.339 236.568ZM494.268 235.136V234.331C494.268 233.774 494.382 233.265 494.611 232.802C494.845 232.335 495.183 231.962 495.625 231.684C496.073 231.4 496.614 231.259 497.251 231.259C497.897 231.259 498.439 231.4 498.877 231.684C499.314 231.962 499.645 232.335 499.868 232.802C500.092 233.265 500.204 233.774 500.204 234.331V235.136C500.204 235.693 500.09 236.205 499.861 236.673C499.637 237.135 499.304 237.508 498.862 237.791C498.424 238.07 497.887 238.209 497.251 238.209C496.604 238.209 496.06 238.07 495.618 237.791C495.175 237.508 494.84 237.135 494.611 236.673C494.382 236.205 494.268 235.693 494.268 235.136ZM495.789 234.331V235.136C495.789 235.599 495.899 236.014 496.117 236.382C496.336 236.745 496.714 236.926 497.251 236.926C497.773 236.926 498.141 236.745 498.354 236.382C498.573 236.014 498.683 235.599 498.683 235.136V234.331C498.683 233.869 498.578 233.456 498.369 233.093C498.161 232.725 497.788 232.541 497.251 232.541C496.729 232.541 496.353 232.725 496.125 233.093C495.901 233.456 495.789 233.869 495.789 234.331ZM486.661 226.396V225.591C486.661 225.034 486.776 224.525 487.004 224.062C487.238 223.595 487.576 223.222 488.019 222.944C488.466 222.66 489.008 222.518 489.644 222.518C490.291 222.518 490.832 222.66 491.27 222.944C491.707 223.222 492.038 223.595 492.262 224.062C492.486 224.525 492.597 225.034 492.597 225.591V226.396C492.597 226.953 492.483 227.465 492.254 227.933C492.031 228.395 491.698 228.768 491.255 229.051C490.818 229.33 490.281 229.469 489.644 229.469C488.998 229.469 488.454 229.33 488.011 229.051C487.569 228.768 487.233 228.395 487.004 227.933C486.776 227.465 486.661 226.953 486.661 226.396ZM488.183 225.591V226.396C488.183 226.859 488.292 227.274 488.511 227.642C488.729 228.005 489.107 228.186 489.644 228.186C490.166 228.186 490.534 228.005 490.748 227.642C490.967 227.274 491.076 226.859 491.076 226.396V225.591C491.076 225.129 490.972 224.716 490.763 224.353C490.554 223.985 490.181 223.801 489.644 223.801C489.122 223.801 488.747 223.985 488.518 224.353C488.294 224.716 488.183 225.129 488.183 225.591ZM487.228 238L497.728 222.727H499.428L488.928 238H487.228Z" fill="black"/>
<path d="M185.652 320.209C185.026 320.199 184.399 320.08 183.773 319.851C183.146 319.622 182.575 319.237 182.057 318.695C181.54 318.148 181.125 317.41 180.812 316.48C180.499 315.545 180.342 314.372 180.342 312.96C180.342 311.608 180.469 310.41 180.723 309.366C180.976 308.317 181.344 307.434 181.826 306.718C182.309 305.998 182.89 305.451 183.571 305.078C184.257 304.705 185.031 304.518 185.891 304.518C186.746 304.518 187.506 304.69 188.173 305.033C188.844 305.371 189.391 305.843 189.813 306.45C190.236 307.056 190.509 307.755 190.633 308.545H188.814C188.645 307.859 188.317 307.29 187.83 306.838C187.342 306.385 186.696 306.159 185.891 306.159C184.707 306.159 183.775 306.674 183.094 307.703C182.418 308.732 182.077 310.176 182.072 312.036H182.192C182.47 311.613 182.801 311.252 183.184 310.954C183.571 310.651 183.999 310.417 184.466 310.253C184.934 310.089 185.428 310.007 185.95 310.007C186.825 310.007 187.626 310.226 188.352 310.663C189.077 311.096 189.659 311.695 190.097 312.461C190.534 313.221 190.753 314.094 190.753 315.078C190.753 316.023 190.542 316.888 190.119 317.673C189.696 318.454 189.102 319.075 188.337 319.538C187.576 319.995 186.681 320.219 185.652 320.209ZM185.652 318.568C186.278 318.568 186.84 318.412 187.337 318.098C187.839 317.785 188.235 317.365 188.523 316.838C188.816 316.311 188.963 315.724 188.963 315.078C188.963 314.447 188.821 313.873 188.538 313.355C188.26 312.833 187.874 312.418 187.382 312.11C186.895 311.802 186.338 311.648 185.712 311.648C185.239 311.648 184.799 311.742 184.392 311.931C183.984 312.115 183.626 312.369 183.318 312.692C183.015 313.015 182.776 313.385 182.602 313.803C182.428 314.216 182.341 314.651 182.341 315.108C182.341 315.714 182.483 316.281 182.766 316.808C183.054 317.335 183.447 317.76 183.944 318.083C184.446 318.407 185.016 318.568 185.652 318.568ZM198.458 320.209C197.583 320.209 196.795 320.035 196.094 319.687C195.393 319.339 194.831 318.862 194.409 318.255C193.986 317.648 193.755 316.957 193.715 316.182H195.505C195.575 316.873 195.888 317.445 196.445 317.897C197.006 318.344 197.678 318.568 198.458 318.568C199.085 318.568 199.641 318.422 200.129 318.128C200.621 317.835 201.006 317.432 201.285 316.92C201.568 316.403 201.71 315.819 201.71 315.168C201.71 314.501 201.563 313.907 201.27 313.385C200.981 312.858 200.584 312.443 200.076 312.14C199.569 311.837 198.99 311.683 198.339 311.678C197.872 311.673 197.392 311.745 196.9 311.894C196.407 312.038 196.002 312.224 195.684 312.453L193.954 312.244L194.879 304.727H202.813V306.368H196.43L195.893 310.872H195.982C196.296 310.624 196.688 310.417 197.161 310.253C197.633 310.089 198.125 310.007 198.637 310.007C199.572 310.007 200.405 310.231 201.135 310.678C201.871 311.121 202.448 311.727 202.865 312.498C203.288 313.268 203.499 314.148 203.499 315.138C203.499 316.112 203.281 316.982 202.843 317.748C202.411 318.509 201.814 319.11 201.053 319.553C200.293 319.99 199.428 320.209 198.458 320.209ZM214.247 317.136V316.331C214.247 315.774 214.362 315.265 214.59 314.802C214.824 314.335 215.162 313.962 215.605 313.684C216.052 313.4 216.594 313.259 217.23 313.259C217.877 313.259 218.418 313.4 218.856 313.684C219.293 313.962 219.624 314.335 219.848 314.802C220.072 315.265 220.183 315.774 220.183 316.331V317.136C220.183 317.693 220.069 318.205 219.84 318.673C219.617 319.135 219.284 319.508 218.841 319.791C218.404 320.07 217.867 320.209 217.23 320.209C216.584 320.209 216.04 320.07 215.597 319.791C215.155 319.508 214.819 319.135 214.59 318.673C214.362 318.205 214.247 317.693 214.247 317.136ZM215.769 316.331V317.136C215.769 317.599 215.878 318.014 216.097 318.382C216.315 318.745 216.693 318.926 217.23 318.926C217.752 318.926 218.12 318.745 218.334 318.382C218.553 318.014 218.662 317.599 218.662 317.136V316.331C218.662 315.869 218.558 315.456 218.349 315.093C218.14 314.725 217.767 314.541 217.23 314.541C216.708 314.541 216.333 314.725 216.104 315.093C215.88 315.456 215.769 315.869 215.769 316.331ZM206.641 308.396V307.591C206.641 307.034 206.755 306.525 206.984 306.062C207.217 305.595 207.556 305.222 207.998 304.944C208.445 304.66 208.987 304.518 209.624 304.518C210.27 304.518 210.812 304.66 211.249 304.944C211.687 305.222 212.018 305.595 212.241 306.062C212.465 306.525 212.577 307.034 212.577 307.591V308.396C212.577 308.953 212.463 309.465 212.234 309.933C212.01 310.395 211.677 310.768 211.235 311.051C210.797 311.33 210.26 311.469 209.624 311.469C208.977 311.469 208.433 311.33 207.991 311.051C207.548 310.768 207.213 310.395 206.984 309.933C206.755 309.465 206.641 308.953 206.641 308.396ZM208.162 307.591V308.396C208.162 308.859 208.271 309.274 208.49 309.642C208.709 310.005 209.087 310.186 209.624 310.186C210.146 310.186 210.514 310.005 210.727 309.642C210.946 309.274 211.056 308.859 211.056 308.396V307.591C211.056 307.129 210.951 306.716 210.742 306.353C210.534 305.985 210.161 305.801 209.624 305.801C209.102 305.801 208.726 305.985 208.498 306.353C208.274 306.716 208.162 307.129 208.162 307.591ZM207.208 320L217.708 304.727H219.408L208.908 320H207.208Z" fill="black"/>
</svg>
