<svg width="696" height="640" viewBox="0 0 696 640" fill="none" xmlns="http://www.w3.org/2000/svg">
<g clip-path="url(#clip0_35_2)">
<path d="M365.671 29.557C365.671 45.8714 352.464 59.114 336.185 59.114C319.905 59.114 306.698 45.8714 306.698 29.557C306.698 13.2425 319.905 0 336.185 0C352.464 0 365.671 13.2425 365.671 29.557Z" fill="#F9E462"/>
<path d="M226.712 32.5459C226.712 32.5459 232.235 6.76656 251.381 7.59681C270.484 8.42706 274.513 22.2093 295.153 24.2849C315.794 26.402 323.85 15.1936 333.402 32.5044H226.712V32.5459Z" fill="#E9EAF2"/>
<path d="M0 345.385H66.4063C66.4063 345.385 66.7386 327.078 51.1233 327.078C39.7441 327.078 35.5496 336.003 26.5376 339.532C17.4841 343.06 7.26774 332.558 0 345.385Z" fill="#E9EAF2"/>
<path d="M614.228 500.019H696C696 500.019 696.415 477.478 677.145 477.478C663.15 477.478 657.959 488.479 646.87 492.796C635.74 497.114 623.198 484.162 614.228 500.019Z" fill="#E9EAF2"/>
<path d="M459.072 601.808C491.756 603.427 516.009 597.865 532.58 591.472C548.61 585.245 561.692 573.248 569.583 557.971L639.27 422.432C594.252 469.3 468.582 445.347 451.347 441.777L449.437 402.34L379.874 528.871L460.899 640L459.072 601.808Z" fill="#82D190"/>
<path d="M553.262 434.845L483.533 337.082L606.337 263.688L652.269 342.064C661.032 356.967 660.616 375.606 651.148 390.053C637.11 411.349 607.5 434.928 553.262 434.845Z" fill="#569F87"/>
<path d="M411.437 519.779C411.437 518.368 453.382 447.34 453.382 447.34L499.065 519.779H411.437Z" fill="#569F87"/>
<path d="M453.382 447.381L466.215 519.779H499.023L453.382 447.381Z" fill="#67B297"/>
<path d="M453.382 447.381L438.224 473.078L447.817 469.259L452.468 474.489L457.244 469.176L471.78 476.523L453.382 447.381Z" fill="#E9EAF2"/>
<path d="M561.858 528.663H422.027C419.577 528.663 417.583 526.671 417.583 524.221C417.583 521.772 419.577 519.779 422.027 519.779H561.858C564.309 519.779 566.302 521.772 566.302 524.221C566.302 526.671 564.309 528.663 561.858 528.663Z" fill="#7EDBEA"/>
<path d="M526.599 538.875H440.3C437.393 538.875 434.984 536.509 434.984 533.562C434.984 530.656 437.352 528.248 440.3 528.248H526.599C529.507 528.248 531.915 530.614 531.915 533.562C531.874 536.509 529.507 538.875 526.599 538.875Z" fill="#7EDBEA"/>
<path d="M523.319 547.427H455.583C453.216 547.427 451.347 545.517 451.347 543.151C451.347 540.785 453.258 538.875 455.583 538.875H523.319C525.686 538.875 527.555 540.785 527.555 543.151C527.555 545.517 525.644 547.427 523.319 547.427Z" fill="#7EDBEA"/>
<path d="M453.382 539H430.541C427.675 539 425.391 536.675 425.391 533.852C425.391 530.988 427.717 528.705 430.541 528.705H453.382C456.248 528.705 458.532 531.029 458.532 533.852C458.532 536.675 458.532 539 453.382 539Z" fill="#82D190"/>
<path d="M563.603 539.166H526.392C523.402 539.166 520.951 536.717 520.951 533.728C520.951 530.739 523.402 528.29 526.392 528.29H563.603C566.593 528.29 569.043 530.739 569.043 533.728C569.043 536.717 566.593 539.166 563.603 539.166Z" fill="#82D190"/>
<path d="M451.306 519.779C451.306 517.579 517.048 406.242 517.048 406.242L571.452 519.779H451.306Z" fill="#569F87"/>
<path d="M517.089 406.242L537.231 519.779H571.493L582.457 509.941L577.1 501.431L517.089 406.242Z" fill="#67B297"/>
<path d="M517.089 402.174L493.334 446.593L508.409 440.573L515.677 448.751L523.152 440.449L545.911 451.989L517.089 402.174Z" fill="#E9EAF2"/>
<path d="M109.805 298.476C90.6598 325.085 82.1462 348.54 78.5331 365.975C75.0446 382.829 77.9517 400.389 86.5068 415.292L162.133 547.593C147.39 484.245 235.724 391.464 248.058 378.927L282.113 398.77L213.879 271.451L76.7888 279.255L109.805 298.476Z" fill="#82D190"/>
<path d="M246.771 405.495C246.771 405.495 144.4 341.275 60.8413 420.772L164.002 570.964C164.002 570.964 170.854 457.469 220.898 434.845C270.941 412.179 246.771 405.495 246.771 405.495Z" fill="#7EDBEA"/>
<path d="M198.43 468.47L318.161 462.907L312.886 606.167L222.31 602.224C205.075 601.476 189.667 591.015 182.732 575.199C172.515 551.827 168.902 514.092 198.43 468.47Z" fill="#569F87"/>
<path d="M175.464 270.953L174.592 372.659H181.486L179.658 271.285L175.464 270.953Z" fill="#F5F4F7"/>
<path d="M176.544 266.719L180.531 228.153L182.482 229.772L184.85 262.069L179.409 267.798L176.544 266.719Z" fill="#F5F4F7"/>
<path d="M175.215 264.145L186.013 250.612L185.93 263.315L178.33 270.455L175.215 264.145Z" fill="#E9EAF2"/>
<path d="M180.032 269.375L211.553 291.792L209.186 292.747L179.991 278.882L177.665 271.368L180.032 269.375Z" fill="#F5F4F7"/>
<path d="M182.898 269.5L189.376 285.565L178.371 279.255L175.879 269.126L182.898 269.5Z" fill="#E9EAF2"/>
<path d="M175.63 270.911L141.036 288.222L141.326 285.69L167.283 266.345L174.966 267.839L175.63 270.911Z" fill="#F5F4F7"/>
<path d="M174.177 273.402L156.983 271.534L167.698 264.767L177.831 267.341L174.177 273.402Z" fill="#E9EAF2"/>
<path d="M176.959 264.643C179.451 264.394 181.652 266.179 181.943 268.711C182.192 271.202 180.406 273.444 177.914 273.693C175.422 273.942 173.221 272.115 172.931 269.624C172.681 267.134 174.467 264.892 176.959 264.643Z" fill="#5F513E"/>
<path d="M109.681 297.895L108.975 360.371H114.581L113.086 298.185L109.681 297.895Z" fill="#F5F4F7"/>
<path d="M113.003 295.86L138.959 313.711L137.049 314.5L113.044 303.623L111.093 297.479L113.003 295.86Z" fill="#F5F4F7"/>
<path d="M115.329 295.902L120.81 308.895L111.757 303.914L109.597 295.694L115.329 295.902Z" fill="#E9EAF2"/>
<path d="M109.722 297.313L81.4402 311.22L81.6894 309.144L102.953 293.577L109.224 294.823L109.722 297.313Z" fill="#F5F4F7"/>
<path d="M108.518 299.347L94.5222 297.728L103.327 292.249L111.508 294.449L108.518 299.347Z" fill="#E9EAF2"/>
<path d="M110.345 293.577L111.425 261.986L113.127 263.19L116.824 289.343L112.754 294.283L110.345 293.577Z" fill="#F5F4F7"/>
<path d="M109.141 291.543L117.156 279.92L117.82 290.256L112.048 296.525L109.141 291.543Z" fill="#E9EAF2"/>
<path d="M114.29 296.94C113.501 298.808 111.342 299.721 109.473 298.932C107.604 298.144 106.69 295.985 107.479 294.075C108.268 292.207 110.428 291.294 112.297 292.083C114.166 292.913 115.079 295.072 114.29 296.94Z" fill="#5F513E"/>
<path d="M125.005 412.926C125.005 412.926 135.263 406.035 147.307 411.888C159.35 417.783 169.11 412.926 169.11 412.926" stroke="#A1EFF7" stroke-width="0.6142" stroke-miterlimit="10" stroke-linecap="round" stroke-linejoin="round"/>
<path d="M133.394 426.127C133.394 426.127 143.652 419.236 155.696 425.089C167.74 430.984 177.499 426.127 177.499 426.127" stroke="#A1EFF7" stroke-width="0.6142" stroke-miterlimit="10" stroke-linecap="round" stroke-linejoin="round"/>
<path d="M538.02 167.877C523.568 138.445 506.914 119.888 493.251 108.514C480.044 97.5131 463.225 91.8674 446.073 92.4071L294.073 97.2225C356.783 113.911 397.026 235.667 402.3 252.48L368.827 273.319L512.936 272.696L570.413 147.702L538.02 167.877Z" fill="#82D190"/>
<path d="M346.692 166.549L295.361 275.146L171.685 203.204L217.658 124.87C226.421 109.967 242.825 101.249 260.06 102.536C285.435 104.487 320.362 118.975 346.692 166.549Z" fill="#569F87"/>
<path d="M369.118 123.874H364.425V96.8904L369.118 97.6377V123.874Z" fill="#4D8076"/>
<path d="M381.909 101.872C381.909 110.258 375.14 117.024 366.792 117.024C358.445 117.024 351.675 110.216 351.675 101.872C351.675 93.4864 358.445 86.7198 366.792 86.7198C375.14 86.7198 381.909 93.4864 381.909 101.872Z" fill="#569F87"/>
<path d="M450.599 106.729H445.948V79.7457L450.599 80.4514V106.729Z" fill="#4D8076"/>
<path d="M463.391 84.7273C463.391 93.1128 456.621 99.8794 448.274 99.8794C439.926 99.8794 433.157 93.0713 433.157 84.7273C433.157 76.3832 439.926 69.5751 448.274 69.5751C456.621 69.5751 463.391 76.3417 463.391 84.7273Z" fill="#569F87"/>
<path d="M495.66 150.234H490.261V166.964H495.66V150.234Z" fill="#4D8076"/>
<path d="M493.085 80.8666L475.518 155.506H511.15L493.085 80.8666Z" fill="#67B297"/>
<path d="M493.334 155.506C493.209 155.506 493.085 80.8251 493.085 80.8251L511.15 155.506H493.334Z" fill="#569F87"/>
<path d="M433.323 212.711H426.637V233.55H433.323V212.711Z" fill="#4D8076"/>
<path d="M430.167 126.323L408.281 219.311H452.634L430.167 126.323Z" fill="#67B297"/>
<path d="M430.457 219.311C430.291 219.311 430.125 126.281 430.125 126.281L452.634 219.311H430.457Z" fill="#569F87"/>
<path d="M398.812 142.471C395.863 142.471 393.33 144.173 392.125 146.623C390.88 142.596 387.1 139.648 382.657 139.648C377.175 139.648 372.731 144.09 372.731 149.57H391.336H392.541H406.246C406.079 145.626 402.799 142.471 398.812 142.471Z" fill="#569F87"/>
<path d="M509.904 192.992C505.502 192.992 501.681 195.566 499.854 199.261C497.985 193.2 492.337 188.799 485.651 188.799C477.428 188.799 470.783 195.483 470.783 203.702H498.691H500.518H521.076C520.827 197.725 515.926 192.992 509.904 192.992Z" fill="#569F87"/>
</g>
<defs>
<clipPath id="clip0_35_2">
<rect width="696" height="640" fill="white"/>
</clipPath>
</defs>
</svg>
