<svg width="24" height="24" viewBox="0 0 24 24" fill="none" xmlns="http://www.w3.org/2000/svg">
<mask id="mask0_3_538" style="mask-type:alpha" maskUnits="userSpaceOnUse" x="0" y="0" width="24" height="24">
<rect width="24" height="24" fill="#737780"/>
</mask>
<g mask="url(#mask0_3_538)">
<path d="M9.2 9.2L11.425 5.525L9.95 3.075C9.75 2.74167 9.46267 2.575 9.088 2.575C8.71267 2.575 8.425 2.74167 8.225 3.075L5.775 7.15L9.2 9.2ZM18.875 16L16.65 12.3L20.125 10.3L21.725 12.975C21.9083 13.2583 22.0043 13.5793 22.013 13.938C22.021 14.296 21.95 14.6167 21.8 14.9C21.6333 15.2333 21.3873 15.5 21.062 15.7C20.7373 15.9 20.3833 16 20 16H18.875ZM16 23L12 19L16 15V17H20.75L19.3 19.9C19.1167 20.2333 18.8667 20.5 18.55 20.7C18.2333 20.9 17.8833 21 17.5 21H16V23ZM6.325 21C5.99167 21 5.68733 20.9127 5.412 20.738C5.13733 20.5627 4.93333 20.3333 4.8 20.05C4.66667 19.7833 4.60433 19.504 4.613 19.212C4.621 18.9207 4.7 18.65 4.85 18.4L5.7 17H10V21H6.325ZM3.85 18.15L2.225 14.9C2.075 14.6 2.00433 14.2793 2.013 13.938C2.021 13.596 2.11667 13.275 2.3 12.975L2.7 12.3L1 11.275L6.475 9.9L7.85 15.4L6.125 14.35L3.85 18.15ZM17.35 9.6L11.875 8.225L13.6 7.2L10.475 2H14C14.35 2 14.6793 2.08733 14.988 2.262C15.296 2.43733 15.5417 2.675 15.725 2.975L17.025 5.15L18.725 4.1L17.35 9.6Z" fill="#737780"/>
</g>
</svg>
