<svg width="24" height="24" viewBox="0 0 24 24" fill="none" xmlns="http://www.w3.org/2000/svg">
<mask id="mask0_52_99" style="mask-type:alpha" maskUnits="userSpaceOnUse" x="0" y="0" width="24" height="24">
<rect width="24" height="24" fill="#D9D9D9"/>
</mask>
<g mask="url(#mask0_52_99)">
<path d="M10.9501 16.55L16.6001 10.9L15.1751 9.47501L10.9501 13.7L8.8251 11.575L7.4001 13L10.9501 16.55ZM12.0001 22C10.7501 22 9.57943 21.7627 8.4881 21.288C7.3961 20.8127 6.4461 20.1707 5.6381 19.362C4.82943 18.554 4.18743 17.604 3.7121 16.512C3.23743 15.4207 3.0001 14.25 3.0001 13C3.0001 11.75 3.23743 10.579 3.7121 9.48701C4.18743 8.39567 4.82943 7.44567 5.6381 6.63701C6.4461 5.82901 7.3961 5.18767 8.4881 4.71301C9.57943 4.23767 10.7501 4.00001 12.0001 4.00001C13.2501 4.00001 14.4211 4.23767 15.5131 4.71301C16.6044 5.18767 17.5544 5.82901 18.3631 6.63701C19.1711 7.44567 19.8128 8.39567 20.2881 9.48701C20.7628 10.579 21.0001 11.75 21.0001 13C21.0001 14.25 20.7628 15.4207 20.2881 16.512C19.8128 17.604 19.1711 18.554 18.3631 19.362C17.5544 20.1707 16.6044 20.8127 15.5131 21.288C14.4211 21.7627 13.2501 22 12.0001 22ZM5.6001 2.35001L7.0001 3.75001L2.7501 8.00001L1.3501 6.60001L5.6001 2.35001ZM18.4001 2.35001L22.6501 6.60001L21.2501 8.00001L17.0001 3.75001L18.4001 2.35001ZM12.0001 20C13.9501 20 15.6041 19.3207 16.9621 17.962C18.3208 16.604 19.0001 14.95 19.0001 13C19.0001 11.05 18.3208 9.39567 16.9621 8.03701C15.6041 6.67901 13.9501 6.00001 12.0001 6.00001C10.0501 6.00001 8.3961 6.67901 7.0381 8.03701C5.67943 9.39567 5.0001 11.05 5.0001 13C5.0001 14.95 5.67943 16.604 7.0381 17.962C8.3961 19.3207 10.0501 20 12.0001 20Z" fill="#A56946"/>
</g>
</svg>
